<?xml version="1.0" standalone="no"?>
<!DOCTYPE svg PUBLIC "-//W3C//DTD SVG 20010904//EN"
 "http://www.w3.org/TR/2001/REC-SVG-20010904/DTD/svg10.dtd">
<svg version="1.0" xmlns="http://www.w3.org/2000/svg"
 width="1536.000000pt" height="1024.000000pt" viewBox="0 0 1536.000000 1024.000000"
 preserveAspectRatio="xMidYMid meet">

<g transform="translate(0.000000,1024.000000) scale(0.100000,-0.100000)"
fill="#000000" stroke="none">
<path d="M7322 8450 l3 -200 38 0 37 0 0 73 c0 39 -3 129 -7 200 l-6 127 -34
0 -33 0 2 -200z"/>
<path d="M7586 8549 c-3 -55 -9 -144 -12 -198 l-6 -99 43 -6 c24 -3 86 -7 137
-9 l92 -4 0 33 0 34 -94 0 c-52 0 -97 3 -99 8 -2 4 -2 30 1 58 l4 51 79 -5 79
-5 0 32 0 31 -57 0 c-98 0 -104 4 -101 63 l3 51 97 -3 97 -3 7 27 c3 14 5 27
3 29 -2 2 -63 6 -136 8 l-131 6 -6 -99z"/>
<path d="M6848 8633 c-22 -5 -22 -7 -6 -230 10 -153 14 -173 29 -173 43 0 49
10 49 81 0 52 3 69 14 69 7 0 26 2 42 5 27 6 32 1 74 -64 44 -69 46 -71 88
-71 23 0 42 3 42 6 0 8 -59 95 -82 120 -19 21 -18 22 17 57 29 29 35 42 35 77
0 52 -25 95 -66 115 -31 14 -191 20 -236 8z m215 -85 c23 -31 17 -72 -13 -88
-10 -6 -46 -13 -80 -17 l-60 -6 0 40 c0 22 -3 55 -6 72 l-7 32 73 -3 c66 -3
75 -6 93 -30z"/>
<path d="M8006 8609 c-2 -8 -9 -77 -15 -154 -6 -77 -14 -161 -17 -186 l-6 -47
64 -7 c163 -19 238 3 285 83 53 90 31 217 -47 269 -42 29 -87 41 -182 49 -62
6 -78 4 -82 -7z m193 -77 c52 -26 75 -63 74 -120 -1 -99 -53 -147 -156 -144
-31 0 -61 3 -65 6 -4 3 -2 56 5 118 6 62 12 123 13 136 0 20 5 22 48 22 26 0
62 -8 81 -18z"/>
<path d="M6443 8592 c-11 -7 -118 -410 -111 -417 2 -1 18 0 35 2 29 5 34 11
45 52 l14 46 84 11 c47 6 89 9 93 6 4 -2 18 -20 31 -41 22 -34 27 -37 60 -33
20 2 36 7 36 9 0 3 -38 69 -83 147 -46 77 -94 160 -107 184 -20 35 -29 42 -54
42 -17 0 -36 -4 -43 -8z m78 -139 c18 -32 39 -66 47 -76 8 -9 13 -19 11 -21
-2 -2 -35 -7 -72 -11 -64 -6 -69 -5 -64 12 3 10 8 32 12 48 12 56 26 105 30
105 2 0 18 -26 36 -57z"/>
<path d="M6125 8541 l-30 -6 -21 -145 c-12 -80 -23 -153 -25 -164 -3 -13 -31
21 -99 118 l-95 137 -35 -6 c-19 -4 -36 -8 -38 -10 -2 -2 51 -81 119 -177 116
-165 123 -173 153 -170 47 4 56 9 56 35 0 23 45 331 55 375 3 12 2 21 -2 21
-5 -1 -21 -4 -38 -8z"/>
<path d="M8594 8508 c-80 -125 -192 -322 -188 -330 3 -4 18 -8 34 -8 24 0 35
8 54 39 l25 38 87 -14 c49 -7 89 -15 91 -17 2 -2 7 -23 11 -47 7 -39 11 -44
42 -50 19 -4 36 -6 38 -5 1 2 -18 90 -43 197 -25 107 -45 202 -45 212 0 11 -8
17 -24 17 -13 0 -31 3 -40 6 -10 4 -24 -8 -42 -38z m86 -212 c0 -14 -5 -17
-22 -13 -13 4 -42 9 -65 13 l-42 6 26 47 c14 25 35 62 47 81 l20 34 18 -74 c9
-41 17 -83 18 -94z"/>
<path d="M8950 8303 c-23 -98 -44 -186 -46 -195 -4 -13 5 -20 38 -28 24 -6 59
-15 78 -21 48 -12 105 -11 153 3 149 45 173 280 37 357 -32 18 -177 61 -206
61 -8 0 -28 -67 -54 -177z m213 71 c63 -33 83 -113 47 -192 -30 -65 -90 -85
-186 -61 -35 9 -44 15 -39 28 3 8 18 69 33 134 l26 119 46 -7 c24 -4 57 -13
73 -21z"/>
<path d="M9482 8293 c-47 -154 -94 -325 -90 -327 13 -10 244 -73 249 -68 4 4
10 17 13 29 6 20 0 24 -86 52 -51 16 -92 31 -91 33 1 1 7 24 13 51 7 26 16 47
20 47 5 0 37 -9 71 -20 67 -21 77 -18 81 19 3 21 -4 25 -64 44 -38 11 -68 25
-68 31 0 29 22 86 33 86 7 0 49 -11 95 -24 86 -25 87 -24 94 18 3 16 -15 25
-122 57 -69 21 -126 39 -127 39 0 0 -10 -30 -21 -67z"/>
<path d="M9913 8190 c-31 -13 -63 -68 -63 -109 0 -35 20 -58 121 -143 43 -36
44 -37 29 -65 -24 -43 -77 -44 -124 -2 -20 17 -39 42 -42 55 -3 13 -8 24 -10
24 -3 0 -56 -22 -63 -26 -1 -2 7 -21 20 -43 34 -62 88 -94 164 -99 57 -4 65
-2 95 25 24 22 33 39 37 74 6 53 -15 84 -97 144 -57 42 -65 74 -26 100 35 23
96 1 116 -43 13 -27 19 -31 40 -26 38 8 43 19 27 50 -39 76 -146 115 -224 84z"/>
<path d="M11297 7729 c4 -13 8 -18 11 -10 2 7 -1 18 -6 23 -8 8 -9 4 -5 -13z"/>
<path d="M11385 7720 c10 -11 20 -20 23 -20 3 0 -3 9 -13 20 -10 11 -20 20
-23 20 -3 0 3 -9 13 -20z"/>
<path d="M11210 7700 c0 -6 7 -10 15 -10 8 0 15 2 15 4 0 2 -7 6 -15 10 -8 3
-15 1 -15 -4z"/>
<path d="M11462 7680 c7 -11 16 -20 21 -20 4 0 3 9 -3 20 -6 11 -15 20 -20 20
-6 0 -5 -9 2 -20z"/>
<path d="M11105 7674 c-14 -11 -8 -12 40 -7 47 5 56 3 50 -7 -6 -10 -3 -11 16
-5 13 5 46 9 72 9 l49 1 -33 13 c-24 10 -39 11 -55 3 -14 -6 -42 -7 -72 -2
-35 5 -55 4 -67 -5z"/>
<path d="M11346 7661 c-3 -5 4 -11 16 -14 30 -8 35 -1 9 12 -11 6 -22 7 -25 2z"/>
<path d="M11026 7643 c-3 -6 -17 -20 -31 -29 -23 -15 -28 -15 -36 -3 -7 11 -9
8 -9 -9 0 -13 -4 -20 -10 -17 -5 3 -10 0 -10 -7 0 -19 -37 -41 -42 -26 -3 9
-6 9 -12 0 -4 -7 -2 -12 4 -12 6 0 2 -15 -10 -32 l-22 -33 29 30 c40 41 110
95 123 95 5 0 -18 -24 -52 -53 -35 -29 -71 -68 -80 -86 -9 -19 -28 -45 -41
-60 -14 -14 -32 -42 -41 -61 -18 -39 -40 -77 -49 -86 -14 -15 9 45 30 76 12
19 23 40 23 47 0 7 14 28 31 48 18 20 29 38 25 42 -11 12 -71 -62 -85 -105 -8
-23 -17 -38 -20 -33 -4 6 -12 6 -21 1 -10 -7 -11 -10 -2 -10 21 0 13 -33 -15
-55 -15 -13 -23 -27 -19 -33 9 -15 36 -16 36 -2 0 6 7 10 15 10 9 0 23 16 32
35 10 21 22 34 30 31 7 -3 17 3 23 14 14 27 12 34 -5 20 -22 -18 -18 -1 8 37
12 18 29 32 37 30 10 -1 14 5 13 18 -1 12 9 34 22 50 17 21 24 25 25 14 0 -11
13 -4 43 24 23 21 61 52 85 69 50 34 56 46 10 18 -40 -24 -47 -25 -44 -4 4 30
36 44 86 39 28 -3 54 0 64 8 13 10 3 12 -59 12 -49 0 -76 -4 -79 -12z m-51
-103 c-21 -22 -44 -40 -50 -40 -10 1 72 80 83 80 3 0 -12 -18 -33 -40z"/>
<path d="M11516 7648 c25 -16 46 -34 84 -73 24 -25 28 -26 24 -9 -3 11 -19 28
-35 38 -16 9 -29 24 -29 32 0 8 -6 14 -14 14 -8 0 -23 3 -33 6 -14 4 -14 3 3
-8z"/>
<path d="M11404 7631 c3 -5 16 -11 28 -14 22 -6 22 -5 4 8 -22 17 -40 20 -32
6z"/>
<path d="M11460 7631 c0 -5 5 -13 10 -16 6 -3 10 -2 10 4 0 5 -4 13 -10 16 -5
3 -10 2 -10 -4z"/>
<path d="M11044 7614 c-18 -14 -18 -15 4 -4 12 6 22 13 22 15 0 8 -5 6 -26
-11z"/>
<path d="M11474 7591 c4 -6 16 -16 28 -22 15 -8 18 -8 14 0 -4 6 -16 16 -28
22 -15 8 -18 8 -14 0z"/>
<path d="M11650 7539 c0 -6 14 -30 31 -54 22 -31 30 -51 27 -69 -4 -20 -1 -26
13 -26 22 0 41 -33 37 -63 -2 -15 -9 -21 -22 -19 -11 2 -15 -1 -11 -8 3 -6 18
-9 33 -8 22 3 28 -2 37 -32 5 -19 16 -45 23 -58 8 -13 11 -30 8 -38 -7 -17
-47 -18 -65 -1 -8 6 -5 -1 4 -16 14 -22 24 -28 42 -24 46 9 54 -55 8 -67 -28
-7 -35 -23 -42 -102 -5 -56 -4 -61 15 -66 12 -4 20 -1 19 4 -1 6 4 13 11 15
16 6 15 -27 -1 -47 -7 -9 -23 -24 -37 -34 l-25 -18 25 7 c14 4 47 29 74 56 44
45 48 52 42 85 -4 19 -10 43 -13 51 -5 12 -3 14 7 8 9 -5 11 -4 6 4 -5 8 -13
7 -29 -4 -12 -8 -28 -15 -37 -15 -8 0 0 9 17 20 43 26 52 61 23 92 -12 14 -20
33 -18 49 1 14 -7 37 -20 53 -22 29 -30 62 -12 51 17 -11 11 1 -15 29 -22 24
-31 47 -22 60 1 3 -9 16 -22 29 -12 14 -20 30 -16 36 3 6 -7 23 -24 37 -31 26
-43 51 -18 39 6 -4 0 3 -16 15 -15 12 -25 26 -21 31 3 5 0 9 -5 9 -6 0 -11 -5
-11 -11z m210 -579 c0 -24 -15 -40 -36 -40 -21 0 -24 5 -24 39 l0 39 30 -14
c17 -9 30 -19 30 -24z"/>
<path d="M11570 7506 c0 -2 8 -10 18 -17 15 -13 16 -12 3 4 -13 16 -21 21 -21
13z"/>
<path d="M11620 7451 c0 -11 7 -27 16 -35 22 -23 28 -20 10 5 -8 12 -12 28 -9
35 3 8 0 14 -6 14 -6 0 -11 -9 -11 -19z"/>
<path d="M10775 7450 c-3 -5 -1 -10 4 -10 6 0 11 5 11 10 0 6 -2 10 -4 10 -3
0 -8 -4 -11 -10z"/>
<path d="M11680 7340 c6 -11 13 -20 16 -20 2 0 0 9 -6 20 -6 11 -13 20 -16 20
-2 0 0 -9 6 -20z"/>
<path d="M10772 7258 c-7 -7 -12 -21 -12 -32 1 -18 3 -17 16 7 17 31 15 44 -4
25z"/>
<path d="M11721 7254 c0 -11 3 -14 6 -6 3 7 2 16 -1 19 -3 4 -6 -2 -5 -13z"/>
<path d="M10650 7224 c0 -8 5 -12 10 -9 6 4 8 11 5 16 -9 14 -15 11 -15 -7z"/>
<path d="M10721 7190 c-8 -20 -18 -29 -27 -26 -8 3 -14 0 -14 -7 0 -8 -4 -6
-10 3 -6 10 -10 11 -10 3 0 -7 -8 -13 -17 -14 -12 -1 -9 -4 7 -8 36 -10 41
-57 7 -70 -27 -11 -33 -22 -53 -101 -20 -80 -18 -90 12 -90 36 0 28 -28 -15
-57 -38 -26 -34 -30 7 -9 15 8 46 35 69 60 23 25 47 46 51 46 10 0 0 68 -12
88 -3 6 -13 9 -21 6 -11 -5 -13 4 -9 42 2 26 7 50 11 53 3 4 3 -13 0 -36 -6
-49 -3 -52 18 -20 11 18 12 31 4 61 -11 41 1 69 27 59 9 -3 14 1 14 12 0 9 -4
14 -9 10 -5 -3 -11 2 -13 10 -2 10 -8 5 -17 -15z m-68 -187 c-18 -7 -16 -23 2
-23 8 0 15 5 15 11 0 5 5 7 10 4 6 -3 10 -22 10 -41 0 -30 -3 -34 -25 -34 -17
0 -25 -6 -26 -17 -1 -10 -5 0 -10 22 -12 50 -4 85 19 84 10 0 12 -3 5 -6z"/>
<path d="M11911 6934 c0 -11 3 -14 6 -6 3 7 2 16 -1 19 -3 4 -6 -2 -5 -13z"/>
<path d="M12182 6885 c-55 -39 -104 -167 -152 -399 -58 -275 -87 -346 -167
-396 -69 -44 -119 -50 -433 -50 l-290 0 -5 -27 c-14 -67 -21 -78 -55 -89 -33
-11 -34 -12 -10 -17 25 -4 25 -4 -2 -6 -32 -1 -34 -9 -13 -37 20 -27 18 -52
-5 -66 -34 -21 -23 -28 44 -28 78 0 88 10 88 87 0 54 2 60 34 84 19 15 54 30
79 33 67 10 218 -20 256 -51 23 -19 34 -16 16 5 -21 23 -13 32 25 32 38 0 71
-18 64 -35 -3 -8 27 2 72 22 92 43 125 43 189 4 42 -27 49 -28 64 -15 13 12
18 12 26 2 13 -17 15 -76 2 -84 -5 -3 -7 -10 -4 -15 13 -20 22 -6 24 39 12
235 17 149 16 -273 0 -275 3 -520 7 -545 6 -34 5 -39 -3 -21 -5 13 -12 57 -16
98 -6 73 -20 88 -25 25 -1 -17 -6 -32 -10 -32 -4 0 -8 4 -8 9 0 5 -9 7 -20 4
-11 -3 -17 -10 -13 -16 4 -6 -7 -1 -24 11 -33 24 -48 28 -38 12 3 -5 1 -10 -6
-10 -7 0 -4 -7 7 -15 10 -8 24 -14 29 -14 6 0 1 6 -9 14 -11 8 -15 15 -9 15 5
0 18 -10 29 -22 10 -12 13 -18 7 -14 -8 4 -13 2 -13 -5 0 -9 -3 -10 -11 -2 -7
7 -34 6 -90 -5 -44 -8 -83 -11 -86 -8 -4 3 8 22 26 40 18 19 30 39 26 45 -3 6
1 14 10 17 31 12 -6 22 -43 12 -24 -7 -53 -6 -91 1 -30 6 -75 11 -100 11 -28
0 -57 7 -71 17 -23 16 -23 15 4 -17 41 -50 56 -88 85 -230 l26 -125 140 -6
c141 -7 441 -12 460 -8 6 1 14 1 18 0 4 -1 41 13 83 30 l75 31 -7 34 c-3 19
-7 42 -8 51 0 10 -8 21 -16 25 -8 4 20 7 63 7 90 1 133 16 170 60 42 51 50 98
44 276 -5 168 -77 724 -118 914 -46 212 -108 411 -163 519 -47 94 -120 134
-174 97z m116 -167 c-5 -14 -98 -29 -98 -16 0 4 15 8 34 8 19 0 38 5 41 10 9
14 27 12 23 -2z m12 -358 c19 -361 1 -1086 -31 -1239 -19 -93 -75 -126 -132
-77 -42 36 -69 199 -66 411 2 203 27 696 38 753 19 94 23 45 19 -203 -5 -287
6 -688 23 -778 17 -98 44 -134 68 -89 32 60 51 458 52 1092 1 250 5 437 9 415
4 -22 13 -150 20 -285z m-64 215 c5 -61 4 -77 -5 -69 -12 11 -31 150 -22 159
12 13 21 -17 27 -90z m-189 -427 c-3 -8 -6 -5 -6 6 -1 11 2 17 5 13 3 -3 4
-12 1 -19z m-915 -320 c-14 -14 -62 2 -62 21 0 19 27 62 47 74 7 4 14 18 15
30 1 12 4 -9 5 -47 2 -38 0 -73 -5 -78z m1247 -160 c15 -165 52 -365 81 -441
18 -49 26 -59 51 -64 34 -7 37 -26 8 -47 -34 -23 -77 -2 -100 49 -26 59 -48
205 -59 401 -12 207 -12 234 -2 234 5 0 14 -60 21 -132z"/>
<path d="M12090 6826 c-8 -8 -118 -83 -245 -168 -238 -158 -499 -347 -492
-355 3 -2 50 28 106 66 55 39 105 71 110 71 6 0 21 10 35 23 55 50 187 137
207 137 5 0 9 6 10 13 0 11 142 108 202 137 16 8 42 31 59 52 30 39 34 49 8
24z"/>
<path d="M5677 6738 c-237 -361 -224 -344 -301 -407 -133 -108 -335 -179 -682
-242 -145 -27 -498 -33 -599 -11 -334 73 -515 227 -559 477 -9 51 -15 67 -15
45 -1 -22 -4 -30 -9 -22 -10 15 -104 0 -110 -17 -2 -6 -8 -11 -14 -11 -7 0 -9
25 -6 73 7 85 -6 50 -16 -46 -22 -197 75 -428 231 -552 79 -63 240 -140 343
-165 284 -68 575 -45 923 72 83 28 187 66 232 85 44 19 87 37 95 41 8 3 -17
-34 -54 -84 -205 -265 -487 -508 -737 -634 -91 -46 -225 -97 -316 -120 l-41
-10 44 -66 c24 -36 44 -72 44 -80 0 -17 18 -14 150 28 189 61 388 174 590 334
120 96 395 373 540 544 198 235 272 305 365 350 117 57 450 148 470 129 2 -3
-2 -43 -10 -90 -48 -274 -59 -383 -59 -624 -1 -216 1 -250 22 -345 85 -380
291 -588 649 -656 69 -13 126 -15 268 -11 226 6 297 23 590 143 672 276 770
310 970 340 120 19 279 14 345 -10 117 -43 160 -160 95 -254 -19 -26 -76 -57
-125 -67 -65 -12 -70 -16 -70 -42 0 -33 51 -80 97 -89 119 -22 247 46 305 165
19 39 23 62 23 146 0 119 -17 164 -93 240 -98 100 -236 140 -462 132 -223 -8
-368 -50 -720 -210 -350 -159 -457 -205 -553 -241 -379 -141 -637 -123 -821
59 -143 141 -207 385 -192 735 8 177 29 414 51 563 23 156 18 146 67 140 63
-7 146 -32 200 -59 l48 -24 34 52 c55 87 99 169 93 174 -3 3 -8 -4 -12 -15 -6
-19 -7 -19 -35 -3 -20 12 -30 25 -30 42 -1 24 -2 23 -15 -7 -23 -54 -51 -65
-131 -53 -38 5 -91 11 -119 12 l-50 3 2 45 c0 25 -1 34 -4 20 -7 -37 -23 -49
-23 -18 0 28 -15 45 -25 29 -3 -6 -12 -8 -20 -4 -8 3 -15 1 -15 -5 0 -5 -40
-10 -91 -11 -49 -1 -97 -5 -106 -8 -13 -5 -14 0 -8 28 4 19 9 45 11 59 l4 25
-9 -25 c-5 -14 -16 -54 -25 -90 l-17 -65 -109 -18 c-107 -17 -308 -65 -362
-86 -16 -6 -28 -7 -28 -3 0 5 25 47 55 95 31 48 53 91 51 96 -3 4 1 17 10 27
14 18 15 18 4 -3 -19 -41 -2 -24 31 30 17 28 38 62 47 75 8 12 12 22 9 22 -3
0 -15 -16 -27 -35 -12 -19 -26 -33 -31 -29 -5 3 -9 -5 -9 -18 0 -16 -3 -19 -9
-10 -7 11 -11 11 -24 -2 -9 -9 -33 -16 -57 -16 -31 0 -47 6 -65 26 -14 15 -25
31 -25 35 0 5 -7 9 -15 9 -14 0 -13 3 1 25 9 14 14 25 11 25 -3 0 -30 -37 -60
-82z m1026 -165 c-7 -2 -19 -2 -25 0 -7 3 -2 5 12 5 14 0 19 -2 13 -5z"/>
<path d="M11703 6803 c9 -2 23 -2 30 0 6 3 -1 5 -18 5 -16 0 -22 -2 -12 -5z"/>
<path d="M8326 6791 c-10 -16 88 -91 101 -78 2 3 -5 8 -16 12 -11 3 -21 16
-23 28 -2 12 -7 20 -13 19 -5 -2 -9 -8 -7 -14 1 -5 -2 -7 -7 -3 -6 3 -8 12 -5
19 6 15 -22 30 -30 17z"/>
<path d="M9710 6791 c30 -11 29 -11 -35 -16 -41 -3 -45 -2 -20 6 24 6 20 7
-20 4 -57 -6 -180 -60 -170 -75 3 -5 0 -7 -7 -5 -8 3 -45 -19 -83 -49 -168
-130 -339 -382 -391 -577 -42 -155 -291 -408 -363 -369 -64 34 -33 122 158
444 187 313 233 451 175 523 -9 10 -12 11 -8 3 7 -13 5 -13 -9 -1 -20 16 -23
36 -4 25 6 -4 3 2 -7 14 -25 28 -76 42 -151 41 -55 -2 -57 -2 -20 -9 39 -6 39
-7 13 -14 -16 -5 -26 -12 -23 -16 7 -11 -82 -40 -103 -34 -15 5 -15 4 -2 -5
11 -9 2 -10 -40 -4 -94 12 -92 12 -122 -42 -21 -36 -27 -42 -22 -21 6 27 6 28
-16 16 -21 -11 -22 -10 -18 11 3 13 9 33 13 44 3 11 -22 -34 -57 -100 -222
-419 -457 -732 -633 -844 -60 -38 -79 -39 -102 -5 -16 26 -16 29 6 93 12 36
112 248 222 470 109 222 199 406 199 410 0 3 -5 -1 -10 -10 -6 -11 -18 -15
-35 -11 -20 3 -27 0 -31 -15 -4 -12 -15 -20 -35 -21 -17 -1 -33 -3 -37 -3 -22
-4 -105 3 -94 8 6 2 12 11 12 19 0 13 -31 19 -67 15 -8 -1 -10 5 -7 14 3 8 10
15 16 15 5 0 6 4 3 10 -3 5 9 19 27 30 18 11 27 20 19 20 -30 0 -78 -75 -205
-320 -189 -363 -310 -548 -435 -662 -120 -110 -174 -116 -173 -19 1 60 49 172
232 541 93 187 167 346 164 354 -3 8 -1 17 5 21 7 4 8 -1 4 -12 -10 -28 3 -12
21 27 12 24 12 29 3 17 -14 -17 -15 -17 -22 0 -6 17 -7 17 -19 1 -7 -10 -21
-18 -30 -18 -9 0 -16 -4 -16 -10 0 -5 -11 -20 -24 -33 -14 -14 -22 -28 -19
-31 4 -3 -28 -6 -71 -6 -50 0 -75 -4 -71 -10 4 -6 -5 -10 -24 -8 -35 3 -35 2
-21 29 6 10 8 19 5 19 -8 0 -250 -489 -295 -597 -99 -237 -95 -389 12 -444 49
-25 133 -29 193 -9 84 27 200 121 314 255 24 28 40 41 36 30 -5 -11 -10 -63
-12 -115 -4 -83 -2 -99 17 -128 43 -68 153 -90 266 -52 122 42 310 213 456
417 92 127 210 322 303 499 l87 163 31 -5 c116 -20 138 -26 148 -45 21 -41 5
-78 -159 -359 -188 -321 -236 -478 -179 -590 27 -55 84 -89 159 -97 108 -10
234 55 363 186 33 34 62 61 66 61 3 0 9 -23 12 -52 20 -169 183 -242 353 -158
52 25 93 57 164 129 l95 96 0 -75 c0 -61 4 -82 23 -112 31 -50 92 -78 168 -78
106 0 205 42 380 161 169 115 272 242 262 324 -4 35 -48 70 -77 60 -11 -3 -53
-50 -93 -103 -130 -175 -297 -322 -365 -322 -27 0 -53 31 -53 61 0 43 30 130
80 229 45 89 269 508 347 648 19 34 32 62 29 62 -3 0 -14 -17 -25 -37 -11 -21
-20 -33 -21 -27 0 7 -25 13 -60 16 -39 3 -66 11 -80 23 -11 10 -20 15 -20 11
0 -4 -14 1 -30 11 -17 10 -28 23 -26 30 13 32 -6 8 -30 -39 l-26 -52 -19 39
c-39 79 -86 110 -184 119 -40 4 -52 3 -35 -3z m-830 -66 c0 -8 -2 -15 -4 -15
-2 0 -6 7 -10 15 -3 8 -1 15 4 15 6 0 10 -7 10 -15z m966 -86 c13 -14 15 -32
12 -83 -3 -55 -13 -83 -70 -197 -171 -342 -403 -629 -508 -629 -68 0 -82 99
-35 244 35 108 143 316 217 421 153 215 316 319 384 244z m-2500 -106 c-8 -15
-15 -25 -16 -21 0 12 23 58 27 54 3 -2 -2 -17 -11 -33z"/>
<path d="M6331 6774 c0 -11 3 -14 6 -6 3 7 2 16 -1 19 -3 4 -6 -2 -5 -13z"/>
<path d="M7413 6783 c15 -2 39 -2 55 0 15 2 2 4 -28 4 -30 0 -43 -2 -27 -4z"/>
<path d="M7923 6783 c37 -2 96 -2 130 0 34 2 4 3 -68 3 -71 0 -99 -1 -62 -3z"/>
<path d="M7176 6743 c-6 -14 -5 -15 5 -6 7 7 10 15 7 18 -3 3 -9 -2 -12 -12z"/>
<path d="M3391 6714 c0 -11 3 -14 6 -6 3 7 2 16 -1 19 -3 4 -6 -2 -5 -13z"/>
<path d="M3531 6684 c0 -11 3 -14 6 -6 3 7 2 16 -1 19 -3 4 -6 -2 -5 -13z"/>
<path d="M4909 6633 c-13 -16 -12 -17 4 -4 9 7 17 15 17 17 0 8 -8 3 -21 -13z"/>
<path d="M4998 6591 c-6 -10 -18 -17 -25 -14 -7 3 -13 0 -13 -6 0 -7 -8 -7
-26 -1 -15 6 -31 7 -38 2 -6 -5 -20 -12 -30 -16 -20 -7 -20 -7 0 16 10 12 -1
6 -26 -14 -124 -98 -232 -140 -365 -142 -111 -1 -161 19 -188 77 -9 20 -23 37
-30 37 -9 0 -9 -2 1 -8 9 -6 5 -12 -13 -20 -15 -7 -31 -10 -36 -7 -12 8 -11 0
5 -39 17 -40 66 -80 127 -101 61 -22 216 -23 299 -1 97 26 218 88 282 146 54
48 107 110 94 110 -3 0 -11 -9 -18 -19z m-48 -54 c0 -2 -12 -14 -27 -28 l-28
-24 24 28 c23 25 31 32 31 24z"/>
<path d="M10333 6417 c6 -15 17 -27 22 -27 11 0 240 -232 290 -293 16 -20 38
-37 48 -37 12 0 -22 40 -100 118 -199 199 -274 268 -260 239z"/>
<path d="M11240 6235 c-57 -40 -65 -43 -71 -28 -4 12 -10 1 -18 -35 -14 -65
-14 -122 -1 -122 15 0 32 39 25 60 -11 35 5 59 77 115 85 66 78 72 -12 10z"/>
<path d="M10974 6116 c-3 -8 -4 -25 -2 -38 4 -31 42 -32 46 0 2 12 -1 22 -7
22 -6 0 -11 7 -11 15 0 19 -19 20 -26 1z"/>
<path d="M11043 6080 c-27 -63 -48 -73 -80 -36 -17 20 -23 23 -23 11 0 -24 17
-52 35 -59 21 -8 69 17 89 46 17 24 21 73 8 82 -5 3 -18 -17 -29 -44z"/>
<path d="M2821 6050 c-1 -40 -4 -51 -11 -40 -9 13 -12 12 -22 -5 -11 -19 -11
-19 -18 0 -13 35 -23 -133 -16 -250 6 -100 10 -129 30 -220 5 -26 5 -27 -3 -7
-13 28 -32 28 -51 1 -26 -37 -42 -50 -55 -45 -16 6 -26 -29 -13 -42 6 -6 5
-25 -2 -52 -6 -23 -13 -40 -16 -37 -3 2 -8 69 -13 148 -7 119 -8 129 -9 59 -2
-94 20 -300 43 -411 35 -165 138 -416 241 -589 41 -69 84 -136 95 -150 l19
-25 -6 45 c-21 170 -70 344 -149 530 -83 196 -102 286 -90 409 4 42 8 86 9 98
0 11 4 19 8 17 3 -2 12 13 18 33 7 21 23 61 37 90 l24 52 -17 88 c-9 48 -20
149 -24 223 -4 74 -8 110 -9 80z"/>
<path d="M10597 6033 l-38 -4 23 -18 c29 -22 58 -33 58 -21 0 5 13 5 30 0 17
-5 30 -7 30 -4 0 3 9 0 19 -6 13 -7 22 -7 26 0 10 16 82 12 99 -6 15 -14 16
-12 16 25 l0 41 -112 -2 c-62 -1 -130 -3 -151 -5z"/>
<path d="M3240 5984 c-13 -33 -9 -46 70 -254 69 -178 143 -397 195 -571 28
-94 29 -96 45 -75 9 11 20 29 23 39 7 18 8 18 38 0 76 -44 232 -237 326 -402
24 -42 43 -71 43 -65 0 6 -32 64 -71 130 -97 162 -150 267 -140 277 5 5 24 4
42 -1 19 -6 65 -20 102 -31 37 -11 84 -32 103 -48 91 -73 128 -111 149 -153
13 -25 24 -40 25 -33 0 17 -122 252 -193 370 -76 127 -254 378 -350 493 -164
195 -332 350 -381 350 -9 0 -21 -12 -26 -26z"/>
<path d="M11020 5980 l-55 -7 52 -1 c28 -1 55 3 58 8 3 6 5 9 3 8 -2 -1 -28
-4 -58 -8z"/>
<path d="M3104 5908 c-77 -80 -101 -112 -55 -75 24 20 41 27 55 22 47 -13 56
-13 64 3 12 23 15 112 5 112 -5 0 -36 -28 -69 -62z"/>
<path d="M10871 5950 c1 -8 5 -26 9 -40 l8 -25 1 25 c0 14 -4 32 -9 40 -9 13
-10 13 -9 0z"/>
<path d="M10938 5943 c23 -2 59 -2 80 0 20 2 1 4 -43 4 -44 0 -61 -2 -37 -4z"/>
<path d="M11986 5916 c3 -9 11 -16 16 -16 13 0 5 23 -10 28 -7 2 -10 -2 -6
-12z"/>
<path d="M10920 5896 c0 -3 7 -12 16 -21 13 -13 14 -18 3 -31 -7 -9 -22 -20
-34 -24 -20 -9 -20 -9 0 -9 25 -1 36 7 58 41 23 37 22 43 -13 46 -16 1 -30 0
-30 -2z"/>
<path d="M10940 5801 c1 -19 20 -32 39 -26 12 3 19 10 16 15 -6 9 -55 20 -55
11z"/>
<path d="M12005 5800 c-3 -5 -1 -10 4 -10 6 0 11 5 11 10 0 6 -2 10 -4 10 -3
0 -8 -4 -11 -10z"/>
<path d="M5451 5689 c-15 -12 -18 -19 -9 -19 20 0 53 26 42 33 -5 3 -20 -3
-33 -14z"/>
<path d="M5585 5685 c32 -14 41 -13 30 4 -3 6 -18 11 -33 10 l-27 -1 30 -13z"/>
<path d="M2913 5678 c-22 -28 -62 -117 -84 -188 -18 -59 -23 -98 -22 -180 0
-58 5 -116 12 -130 11 -25 11 -25 6 5 -8 45 -9 174 -2 181 13 13 26 -9 37 -64
6 -31 27 -110 48 -175 36 -115 39 -119 107 -190 39 -40 94 -92 123 -116 183
-150 364 -481 452 -826 55 -220 93 -341 127 -410 40 -80 114 -162 183 -199 73
-40 267 -91 465 -122 172 -28 195 -29 515 -29 351 0 488 10 635 46 65 16 86
26 113 54 40 43 37 67 -19 142 -27 36 -59 63 -104 89 -37 20 -68 34 -71 31 -3
-2 30 -31 73 -63 113 -86 130 -139 55 -171 -30 -12 -87 -15 -310 -14 -150 0
-277 3 -282 6 -5 3 -77 12 -160 20 -82 8 -162 17 -177 19 -16 2 -49 7 -75 11
-77 10 -284 102 -295 131 -3 7 -13 16 -24 19 -11 4 -17 11 -14 16 4 5 2 9 -4
9 -6 0 -15 9 -21 21 -16 28 -23 72 -11 65 5 -3 11 1 15 9 4 11 -2 15 -19 15
-16 0 -25 6 -25 15 0 8 -7 15 -15 15 -61 0 -279 191 -343 300 -17 31 -54 107
-82 169 -59 135 -74 159 -96 157 -12 -1 -36 36 -83 129 -99 194 -203 363 -288
465 -21 25 -82 88 -135 140 -87 85 -102 106 -145 195 -48 99 -48 101 -48 201
0 56 -3 97 -7 91 -11 -18 -9 32 3 76 11 42 8 55 -8 35z"/>
<path d="M5655 5670 c10 -11 20 -20 23 -20 3 0 -3 9 -13 20 -10 11 -20 20 -23
20 -3 0 3 -9 13 -20z"/>
<path d="M12000 5599 c0 -5 5 -7 10 -4 6 3 10 8 10 11 0 2 -4 4 -10 4 -5 0
-10 -5 -10 -11z"/>
<path d="M5740 5565 c0 -8 5 -15 10 -15 6 0 10 7 10 15 0 8 -4 15 -10 15 -5 0
-10 -7 -10 -15z"/>
<path d="M12001 5554 c0 -11 3 -14 6 -6 3 7 2 16 -1 19 -3 4 -6 -2 -5 -13z"/>
<path d="M5262 5490 c0 -14 2 -19 5 -12 2 6 2 18 0 25 -3 6 -5 1 -5 -13z"/>
<path d="M10620 5483 c-39 -7 -48 -23 -13 -23 18 0 33 6 37 15 3 8 4 14 3 14
-1 -1 -13 -4 -27 -6z"/>
<path d="M5776 5473 c-12 -12 -6 -33 9 -33 8 0 15 6 15 14 0 17 -14 28 -24 19z"/>
<path d="M11070 5460 c-14 -11 -38 -20 -55 -21 -27 -1 -26 -2 16 -16 44 -15
47 -15 68 6 24 24 27 35 7 28 -10 -4 -13 -1 -9 9 7 18 3 18 -27 -6z"/>
<path d="M5630 5455 c-7 -9 -8 -15 -2 -15 5 0 12 7 16 15 3 8 4 15 2 15 -2 0
-9 -7 -16 -15z"/>
<path d="M10698 5463 c12 -2 32 -2 45 0 12 2 2 4 -23 4 -25 0 -35 -2 -22 -4z"/>
<path d="M2454 5345 c0 -60 1 -84 3 -52 2 32 2 81 0 110 -2 29 -3 3 -3 -58z"/>
<path d="M10318 5413 c7 -3 16 -2 19 1 4 3 -2 6 -13 5 -11 0 -14 -3 -6 -6z"/>
<path d="M12007 5414 c-4 -4 -7 -14 -7 -23 0 -11 3 -12 11 -4 6 6 10 16 7 23
-2 6 -7 8 -11 4z"/>
<path d="M11537 5399 c7 -7 15 -10 18 -7 3 3 -2 9 -12 12 -14 6 -15 5 -6 -5z"/>
<path d="M11234 5385 c11 -8 16 -15 10 -15 -14 -1 39 -29 55 -30 8 0 -5 14
-27 30 -41 30 -75 43 -38 15z"/>
<path d="M11437 5354 c-41 -26 -63 -34 -79 -29 -32 10 -14 -6 46 -41 27 -15
47 -23 43 -17 -4 6 2 18 13 28 10 9 16 23 13 31 -4 10 0 12 13 7 12 -4 15 -3
10 6 -10 15 12 43 27 34 6 -3 7 -1 3 5 -11 19 -28 14 -89 -24z m6 -59 c-3 -9
-8 -14 -10 -11 -3 3 -2 9 2 15 9 16 15 13 8 -4z"/>
<path d="M12006 5355 c-3 -8 -1 -15 4 -15 6 0 10 7 10 15 0 8 -2 15 -4 15 -2
0 -6 -7 -10 -15z"/>
<path d="M11933 5328 c-40 -43 -61 -59 -70 -56 -5 2 -10 -8 -11 -22 -4 -23 -1
-21 42 18 25 23 49 42 53 42 5 0 16 12 26 25 27 38 -3 32 -40 -7z"/>
<path d="M9801 5294 c0 -11 3 -14 6 -6 3 7 2 16 -1 19 -3 4 -6 -2 -5 -13z"/>
<path d="M12000 5296 c0 -8 5 -18 10 -21 6 -3 10 3 10 14 0 12 -4 21 -10 21
-5 0 -10 -6 -10 -14z"/>
<path d="M2572 5270 c0 -14 2 -19 5 -12 2 6 2 18 0 25 -3 6 -5 1 -5 -13z"/>
<path d="M10030 5260 c8 -8 25 -31 37 -50 29 -48 17 -70 -40 -70 -38 -1 -68
-6 -148 -25 -36 -9 -35 20 2 48 16 11 26 24 23 29 -8 13 16 39 29 31 5 -3 7
-1 3 5 -3 6 -2 13 4 17 5 3 10 10 10 15 0 12 -70 -29 -92 -53 -17 -19 -18 -19
-27 4 -9 21 -10 20 -9 -13 1 -21 -1 -40 -5 -44 -4 -4 -7 7 -7 24 0 18 -5 32
-11 32 -17 0 -3 -106 20 -150 19 -37 89 -82 149 -95 31 -6 33 -5 53 42 11 26
37 82 57 123 63 133 64 134 48 121 -9 -8 -16 -8 -20 -2 -4 5 -20 9 -36 9 -16
-1 -35 3 -43 8 -7 5 -6 2 3 -6z"/>
<path d="M11770 5270 c0 -5 5 -10 11 -10 5 0 7 5 4 10 -3 6 -8 10 -11 10 -2 0
-4 -4 -4 -10z"/>
<path d="M5454 5238 c-3 -4 32 -8 77 -8 45 0 80 3 76 6 -9 9 -148 11 -153 2z"/>
<path d="M12005 5241 c-3 -5 -1 -12 5 -16 5 -3 10 1 10 9 0 18 -6 21 -15 7z"/>
<path d="M2580 5235 c-2 -5 -2 -14 -1 -19 1 -5 -4 -4 -13 3 -10 8 -16 9 -21 1
-9 -14 -72 -13 -78 3 -12 28 -6 -103 9 -202 50 -340 188 -645 428 -946 31 -38
75 -94 98 -122 22 -29 44 -53 49 -53 4 0 10 -22 14 -49 7 -52 -5 -91 -29 -91
-7 0 -21 -21 -31 -47 -10 -27 -29 -68 -41 -93 -29 -55 -30 -67 -3 -75 25 -8
34 0 44 40 l7 30 -26 -24 c-14 -14 -26 -22 -26 -19 0 27 78 169 106 193 l35
31 -11 154 c-25 370 -31 437 -40 470 -7 26 -8 9 -5 -65 13 -281 17 -449 10
-443 -4 4 -11 78 -15 165 l-8 158 -77 115 c-85 128 -129 210 -211 398 -71 162
-121 305 -144 412 -10 47 -19 81 -20 75z"/>
<path d="M11840 5215 c0 -12 20 -43 20 -31 0 5 7 3 15 -4 9 -7 18 -10 21 -7 3
3 -5 11 -18 18 -12 6 -26 17 -30 23 -5 6 -8 7 -8 1z"/>
<path d="M5452 5153 l-2 -63 105 0 c63 0 105 4 105 10 0 6 -11 10 -25 10 -23
0 -25 3 -25 50 0 64 -18 66 -22 3 -2 -27 -7 -48 -13 -48 -5 0 -11 21 -13 48
-3 42 -5 47 -28 47 -22 0 -24 -4 -24 -50 0 -46 -2 -50 -24 -50 -23 0 -25 4
-29 53 l-3 52 -2 -62z"/>
<path d="M11470 5178 c0 -24 -41 -55 -120 -92 -41 -19 -78 -38 -82 -41 -4 -4
4 -27 18 -51 23 -39 25 -51 20 -117 -3 -52 -13 -91 -34 -135 -16 -34 -32 -59
-34 -56 -3 3 -22 -4 -43 -16 -20 -11 -33 -15 -29 -9 8 14 -11 4 -38 -19 -21
-18 -223 -35 -418 -35 -97 0 -167 6 -247 22 -118 23 -312 85 -394 127 -27 13
-49 22 -49 19 0 -9 104 -57 199 -92 194 -70 460 -122 737 -143 227 -18 551 14
658 65 l37 18 -41 41 c-22 22 -59 68 -81 101 -41 59 -41 61 -36 132 3 39 10
80 16 91 23 43 7 166 -24 192 -12 10 -15 10 -15 -2z"/>
<path d="M5262 4945 c3 -128 2 -134 -17 -138 -16 -3 -15 -5 5 -6 21 -2 19 -4
-15 -17 -22 -8 -58 -19 -80 -24 -35 -8 -33 -9 20 -4 32 2 73 11 89 19 16 8 59
16 95 17 58 1 60 2 16 5 -102 7 -95 -5 -95 148 0 88 -4 135 -11 135 -7 0 -9
-45 -7 -135z"/>
<path d="M5759 5076 c-2 -2 -2 -63 1 -135 5 -124 4 -130 -15 -135 -35 -10
-107 -7 -100 4 3 5 8 66 10 135 l4 125 -90 0 -90 0 3 -135 3 -135 -35 -10
c-19 -6 -65 -10 -101 -10 -54 0 -68 -3 -75 -17 -4 -10 -7 -21 -6 -24 0 -3 -56
-11 -126 -17 -112 -11 -136 -16 -198 -47 -40 -19 -94 -55 -122 -80 -27 -24
-52 -42 -55 -39 -9 10 -45 -55 -69 -126 -19 -53 -23 -87 -23 -181 0 -101 3
-120 19 -138 11 -12 22 -21 26 -21 3 0 2 39 -3 88 -16 166 25 314 108 391 48
44 85 67 85 52 0 -5 -8 -16 -18 -23 -70 -51 -115 -172 -115 -313 -1 -112 18
-238 38 -255 7 -6 43 -25 81 -44 38 -18 96 -56 129 -83 33 -28 87 -67 120 -87
34 -21 48 -27 32 -13 -29 24 -57 98 -57 148 0 19 8 34 25 45 18 12 23 22 20
42 -16 95 -9 196 16 228 6 7 1 18 -11 29 -11 10 -20 24 -20 31 0 10 -13 12
-51 7 -42 -5 -55 -2 -79 16 -16 11 -31 21 -34 21 -3 0 -8 -17 -12 -37 -7 -39
-23 -77 -24 -57 -1 39 34 183 50 205 19 27 17 39 -7 39 -27 0 -101 -88 -119
-142 -19 -56 -23 -160 -12 -278 l7 -65 -14 50 c-9 29 -15 95 -15 158 0 118 18
191 65 257 24 33 24 36 8 49 -16 12 -16 13 6 8 24 -6 51 7 51 24 0 4 -17 5
-37 3 l-38 -5 35 31 c57 52 135 82 210 83 83 0 151 -18 144 -38 -5 -12 4 -15
45 -15 28 0 51 -4 51 -8 0 -18 -58 -62 -114 -87 -34 -15 -55 -30 -50 -35 17
-17 314 -29 473 -19 85 5 157 11 159 14 3 3 -2 13 -11 23 -48 52 10 72 63 22
22 -20 42 -30 64 -30 31 1 125 21 160 36 14 5 17 4 12 -4 -4 -7 -13 -12 -21
-12 -30 0 -25 -23 13 -64 64 -69 86 -176 63 -306 -8 -40 -9 -36 -10 38 -1 95
-27 183 -72 250 -16 24 -29 48 -29 54 0 5 -6 8 -14 5 -7 -3 -34 -9 -60 -12
-25 -4 -46 -10 -45 -14 0 -3 21 -20 47 -37 95 -62 117 -145 96 -364 -8 -80
-14 -156 -14 -169 0 -23 1 -24 20 -6 25 23 25 18 -1 -46 -26 -68 -118 -198
-172 -244 -59 -51 -129 -85 -176 -85 -21 0 -80 11 -131 24 -50 13 -88 21 -83
17 56 -49 104 -79 131 -85 41 -7 127 -44 120 -51 -3 -3 -25 3 -49 14 -58 24
-99 34 -99 22 0 -5 17 -15 38 -22 47 -15 62 -27 62 -50 0 -13 -10 -20 -35 -25
-24 -4 -35 -12 -35 -24 0 -34 -39 -68 -103 -89 -153 -51 -470 -85 -777 -84
-385 1 -697 56 -905 158 -139 68 -192 148 -274 410 -22 72 -40 125 -41 118 -1
-25 61 -270 80 -317 11 -27 20 -58 20 -69 0 -30 55 -120 111 -181 109 -120
327 -187 699 -217 349 -27 926 25 1093 99 38 17 47 26 47 46 0 33 10 57 21 50
9 -5 30 -2 190 31 88 18 179 60 179 82 0 8 -11 28 -24 43 l-24 29 -28 -30
c-29 -31 -100 -70 -125 -68 -8 0 -2 5 14 11 34 12 34 21 2 38 -38 20 -23 23
18 4 l36 -17 53 49 c60 56 148 151 148 160 0 3 -25 -17 -55 -44 -69 -63 -163
-118 -177 -104 -6 6 3 18 29 33 86 52 221 229 293 383 67 141 85 221 85 376
l0 135 -47 97 c-28 59 -57 103 -73 114 -38 25 -22 30 18 5 51 -31 115 -105
138 -157 46 -110 48 -299 3 -448 -4 -11 -2 -16 4 -12 6 3 12 1 15 -6 2 -7 2 1
0 17 -3 24 -2 27 7 15 10 -13 11 -12 6 4 -4 11 -2 22 4 26 17 11 25 266 10
331 -28 119 -107 222 -211 274 -30 15 -61 33 -69 40 -8 7 -70 18 -136 25 -108
11 -127 11 -170 -4 -84 -28 -114 -17 -80 29 13 18 18 18 48 7 45 -16 53 -15
38 3 -15 18 -17 18 67 1 96 -19 163 -27 138 -16 -11 5 -33 9 -50 10 -31 1
-151 49 -125 50 12 0 12 2 2 9 -10 6 -12 39 -10 139 3 115 1 132 -13 132 -9 0
-18 -2 -20 -4z m-51 -293 c-38 -2 -98 -2 -135 0 -38 2 -7 3 67 3 74 0 105 -1
68 -3z m-330 -50 c21 -26 22 -26 17 -5 -8 30 9 28 29 -3 l16 -25 -52 1 c-66 1
-100 10 -106 28 -3 8 -1 11 4 8 5 -3 20 1 34 9 33 18 31 18 58 -13z m117 -11
c1 -19 -4 -32 -12 -32 -7 0 -13 6 -13 13 0 6 -3 23 -7 36 -5 19 -2 22 13 19
14 -2 19 -12 19 -36z m110 18 c-3 -5 -13 -10 -21 -10 -8 0 -14 5 -14 10 0 6 9
10 21 10 11 0 17 -4 14 -10z m394 -76 c45 -15 94 -39 113 -56 31 -27 31 -29 8
-23 -14 3 -90 22 -170 42 -80 20 -147 38 -150 40 -2 2 2 8 10 13 27 17 110 10
189 -16z m-2118 -1362 c197 -112 614 -169 1057 -144 243 14 408 34 547 67 55
13 102 21 105 18 22 -22 -129 -73 -290 -99 -273 -43 -309 -46 -605 -41 -295 5
-363 12 -565 56 -152 34 -320 127 -359 199 -7 12 -16 20 -22 17 -5 -4 -9 -2
-9 4 0 5 -3 18 -7 28 -3 10 15 -2 43 -27 27 -25 74 -60 105 -78z"/>
<path d="M2875 5024 c15 -28 57 -89 94 -135 38 -48 70 -98 74 -117 4 -18 23
-67 42 -109 48 -104 57 -197 53 -561 -2 -190 0 -292 7 -292 6 0 9 82 7 232 -2
259 2 283 51 283 22 -1 29 5 33 25 17 72 28 108 45 142 12 23 15 39 9 43 -6 4
-32 39 -59 78 -27 40 -102 132 -167 205 -115 129 -160 182 -197 233 -10 13 -6
1 8 -27z"/>
<path d="M2201 4964 c0 -11 3 -14 6 -6 3 7 2 16 -1 19 -3 4 -6 -2 -5 -13z"/>
<path d="M2211 4904 c0 -11 3 -14 6 -6 3 7 2 16 -1 19 -3 4 -6 -2 -5 -13z"/>
<path d="M13101 4864 c0 -11 3 -14 6 -6 3 7 2 16 -1 19 -3 4 -6 -2 -5 -13z"/>
<path d="M2221 4854 c0 -11 3 -14 6 -6 3 7 2 16 -1 19 -3 4 -6 -2 -5 -13z"/>
<path d="M13091 4824 c0 -11 3 -14 6 -6 3 7 2 16 -1 19 -3 4 -6 -2 -5 -13z"/>
<path d="M2231 4814 c0 -11 3 -14 6 -6 3 7 2 16 -1 19 -3 4 -6 -2 -5 -13z"/>
<path d="M4782 4821 c-11 -7 -11 -9 2 -14 10 -4 16 -1 16 8 0 17 -1 17 -18 6z"/>
<path d="M11850 4820 c14 -4 32 -8 40 -9 13 -1 13 0 0 9 -8 5 -26 9 -40 9
l-25 -1 25 -8z"/>
<path d="M12270 4821 c19 -4 46 -11 60 -15 24 -8 24 -8 5 8 -11 8 -38 15 -60
15 l-40 -1 35 -7z"/>
<path d="M11866 4794 c-21 -7 -43 -11 -49 -7 -6 3 -7 1 -3 -5 4 -6 0 -22 -9
-36 l-16 -24 47 14 c26 8 58 14 72 14 34 0 106 41 90 52 -20 12 -89 8 -132 -8z"/>
<path d="M12076 4776 c-59 -20 -95 -36 -87 -40 11 -7 201 59 201 70 0 6 -8 4
-114 -30z"/>
<path d="M2241 4774 c0 -11 3 -14 6 -6 3 7 2 16 -1 19 -3 4 -6 -2 -5 -13z"/>
<path d="M12170 4774 c-33 -13 -33 -14 -5 -8 17 3 34 10 40 15 11 11 8 11 -35
-7z"/>
<path d="M11785 4770 c-3 -5 -1 -10 4 -10 6 0 11 5 11 10 0 6 -2 10 -4 10 -3
0 -8 -4 -11 -10z"/>
<path d="M12828 4774 c-8 -8 26 -102 43 -118 13 -13 6 18 -16 69 -7 17 -15 36
-17 43 -2 7 -6 10 -10 6z"/>
<path d="M12376 4756 c5 -13 -2 -16 -34 -16 -36 0 -136 -25 -204 -52 l-28 -10
24 -19 c29 -23 47 -24 127 -3 34 9 74 13 90 10 19 -3 29 -1 33 10 10 25 7 82
-4 89 -6 3 -7 -1 -4 -9z"/>
<path d="M11755 4751 c-6 -11 13 -26 22 -17 4 3 1 6 -6 6 -7 0 -9 5 -6 10 3 6
4 10 1 10 -3 0 -7 -4 -11 -9z"/>
<path d="M2251 4740 c1 -24 15 -55 21 -44 2 5 -1 20 -8 34 -8 14 -13 18 -13
10z"/>
<path d="M2341 4714 c0 -11 3 -14 6 -6 3 7 2 16 -1 19 -3 4 -6 -2 -5 -13z"/>
<path d="M11662 4721 c-12 -7 -12 -13 0 -35 l14 -26 22 20 c35 33 5 67 -36 41z"/>
<path d="M13331 4714 c0 -11 3 -14 6 -6 3 7 2 16 -1 19 -3 4 -6 -2 -5 -13z"/>
<path d="M13031 4634 c-33 -92 -53 -135 -135 -289 -56 -106 -72 -125 -100
-125 -13 0 -36 -18 -58 -46 -39 -48 -46 -68 -28 -79 6 -3 10 -20 10 -36 0 -39
-37 -58 -76 -40 -26 11 -31 8 -113 -71 -47 -46 -105 -100 -129 -120 -39 -32
-42 -39 -32 -58 9 -17 8 -26 -5 -46 -15 -23 -14 -25 2 -31 35 -12 53 -36 53
-69 0 -25 -7 -38 -31 -55 -44 -31 -105 -41 -149 -23 l-35 14 28 -21 c32 -25
57 -68 57 -102 0 -23 -31 -57 -63 -70 -9 -3 -17 -13 -17 -22 0 -42 -86 -1
-115 55 -19 36 -20 140 -2 141 6 1 18 2 26 3 15 1 29 26 14 26 -14 0 -88 -29
-75 -30 15 0 16 -51 2 -102 -10 -35 -69 -98 -92 -98 -6 0 -17 8 -24 17 -7 10
-32 23 -56 28 -28 7 -44 17 -46 29 -7 32 9 70 42 101 l33 30 -67 -3 c-54 -3
-70 -1 -84 14 -17 16 -21 16 -84 -6 -37 -12 -103 -37 -147 -55 -92 -37 -268
-95 -290 -95 -10 0 -15 -10 -15 -29 l0 -29 48 13 c26 7 108 31 182 53 133 39
200 55 200 48 0 -2 -77 -32 -170 -66 -94 -35 -169 -65 -167 -67 2 -2 23 3 45
11 23 9 91 29 151 46 85 24 116 29 142 22 l34 -8 -45 -17 c-25 -10 -97 -28
-160 -41 -63 -14 -150 -36 -194 -50 -43 -14 -83 -26 -89 -26 -5 0 -15 -7 -22
-17 -8 -11 -18 -14 -31 -8 -10 4 -23 7 -29 5 -5 -1 -93 -19 -195 -40 -235 -49
-288 -68 -351 -131 -27 -27 -55 -49 -62 -48 -6 0 -22 13 -34 29 -22 27 -22 28
-3 23 19 -5 20 -4 8 23 -7 16 -20 34 -28 41 -26 21 20 16 58 -7 31 -19 32 -19
32 0 0 10 -5 22 -11 25 -6 4 -8 22 -4 45 7 41 -12 68 -22 31 -8 -31 -23 -25
-23 9 0 22 6 33 23 39 19 7 302 27 531 37 l70 3 19 48 c10 26 23 54 29 61 6 7
8 15 5 18 -6 6 -57 -59 -57 -73 0 -18 -162 -43 -365 -58 -104 -8 -201 -14
-214 -15 -14 0 -38 -15 -60 -38 -79 -82 -84 -91 -89 -169 -3 -40 -8 -76 -13
-79 -13 -8 -47 14 -60 37 -7 14 -8 42 -4 78 6 50 12 61 56 104 27 26 58 47 69
47 12 0 31 7 44 15 13 9 59 20 102 25 44 5 106 14 139 20 33 5 93 10 134 10
71 0 74 1 57 19 -16 17 -15 18 31 6 44 -11 80 -11 139 1 13 2 30 20 42 43 l20
39 -26 -13 c-15 -8 -65 -19 -112 -25 -47 -6 -116 -18 -155 -25 -38 -8 -139
-23 -224 -35 -189 -26 -234 -40 -290 -93 -54 -52 -71 -91 -71 -163 0 -50 3
-59 34 -90 24 -24 43 -34 66 -34 41 0 156 27 222 51 122 47 166 60 223 69 33
6 92 17 130 25 39 8 86 14 105 14 19 -1 -23 -13 -95 -29 -71 -15 -177 -43
-235 -63 -255 -85 -353 -101 -435 -72 -22 8 -54 15 -72 15 -32 0 -338 47 -613
95 -299 51 -584 96 -870 136 -162 22 -317 45 -345 51 -144 30 -213 123 -190
257 12 74 95 161 153 161 13 0 21 -4 18 -9 -9 -14 224 -64 359 -76 39 -4 126
-15 195 -25 69 -10 202 -28 295 -40 199 -24 281 -40 465 -85 183 -45 221 -52
475 -81 207 -24 224 -24 290 -10 67 15 177 36 365 72 47 8 135 28 195 43 61
16 164 40 230 56 274 63 502 134 497 155 -2 7 7 24 20 38 61 66 155 64 232 -7
l29 -26 -26 40 c-35 54 -41 84 -27 135 15 54 50 90 89 90 23 0 29 4 25 15 -10
25 31 18 66 -11 64 -55 76 -126 33 -212 l-19 -39 43 33 c24 18 58 36 77 39 19
4 56 27 91 59 l58 52 -26 17 c-19 12 -27 26 -27 46 0 42 22 56 58 37 17 -9 32
-21 35 -28 6 -14 36 16 137 133 62 71 170 213 170 223 0 3 -25 6 -55 6 -68 0
-90 -18 -99 -86 -7 -55 -26 -95 -26 -56 0 63 -59 143 -119 164 -35 11 -35 12
-11 19 14 4 43 7 65 8 79 2 144 72 115 125 -19 37 -10 61 24 61 38 0 56 -27
34 -52 -19 -22 -31 -83 -22 -117 7 -29 47 -45 72 -30 8 5 31 43 52 83 21 40
40 67 42 60 3 -9 6 -8 11 4 3 9 2 17 -3 17 -6 0 -10 6 -10 13 0 13 -40 48 -85
74 -11 7 -34 12 -51 13 -25 0 -37 -8 -59 -40 -15 -22 -31 -40 -35 -40 -4 0
-19 -22 -34 -50 -15 -27 -41 -61 -59 -75 -32 -25 -32 -25 -49 -5 -22 27 -29
26 -69 -17 -74 -78 -79 -90 -63 -128 29 -69 8 -135 -55 -179 -110 -77 -304
-120 -601 -136 -496 -26 -998 51 -1565 241 -305 102 -451 167 -603 266 l-94
62 -60 -11 c-36 -6 -55 -14 -48 -18 9 -5 11 -20 7 -45 -3 -20 -2 -47 3 -61 8
-20 5 -28 -18 -50 l-27 -26 38 7 c21 3 45 9 53 12 10 4 14 -3 14 -25 0 -58
-16 -75 -128 -130 -102 -49 -111 -52 -187 -52 l-80 -1 35 -29 c26 -21 41 -27
59 -23 l25 6 -22 -27 c-34 -44 -62 -133 -69 -216 -5 -64 -2 -84 16 -126 20
-47 20 -48 1 -26 -46 55 -57 186 -22 285 11 31 17 57 12 57 -5 0 -20 -36 -35
-80 l-27 -80 -38 0 c-26 0 -40 -5 -44 -16 -8 -21 3 -81 21 -118 8 -15 10 -26
5 -22 -17 10 -50 90 -57 139 -8 54 -19 66 -35 37 -6 -11 -19 -20 -30 -20 -16
0 -18 -6 -16 -41 3 -34 1 -39 -13 -33 -21 9 -124 31 -176 38 -22 3 -53 8 -70
11 -172 33 -200 41 -238 67 -16 11 -31 17 -35 14 -3 -4 2 -32 12 -64 26 -80
26 -82 19 -82 -4 0 -21 14 -39 31 l-31 30 -12 -45 c-6 -25 -11 -73 -11 -108
-1 -51 -3 -59 -12 -44 -6 10 -13 47 -16 82 -4 50 0 71 16 106 19 39 20 48 8
93 -12 45 -14 48 -25 28 -6 -12 -11 -37 -11 -57 0 -47 -15 -84 -37 -88 -25 -5
-136 10 -206 28 -33 8 -96 18 -140 21 -45 3 -122 18 -172 32 -87 26 -90 27
-87 54 5 41 40 115 60 126 9 5 33 12 52 16 19 4 62 20 95 35 65 31 230 95 365
143 82 30 198 43 216 25 12 -12 -15 -36 -54 -49 -50 -16 -62 -28 -34 -35 12
-4 22 -10 22 -15 0 -5 24 9 53 31 28 22 76 48 104 57 29 9 50 19 48 22 -12 11
-75 28 -75 20 0 -5 5 -9 12 -9 6 0 9 -2 6 -5 -3 -3 -19 -2 -37 1 -27 6 -29 8
-15 19 15 10 11 13 -27 19 -24 4 -56 10 -72 12 -22 4 -29 0 -36 -19 -8 -20
-28 -31 -98 -55 -142 -49 -392 -138 -468 -167 -102 -39 -142 -82 -186 -199
-17 -44 -19 -46 -14 -16 4 27 2 31 -6 18 -13 -23 -39 -23 -39 0 -1 40 -25 -25
-31 -83 l-6 -60 -1 54 c-2 69 30 176 68 230 36 50 74 74 158 102 95 32 67 34
-33 3 -52 -16 -89 -33 -93 -43 -9 -27 -123 -145 -151 -157 -17 -8 -33 -9 -51
-2 -14 5 -56 11 -95 12 -79 3 -82 10 -43 74 11 17 17 32 15 32 -11 0 -50 -74
-68 -128 -16 -51 -18 -53 -14 -17 l5 40 -13 -29 c-12 -23 -15 -25 -20 -11 -4
9 -7 26 -7 37 0 12 -3 18 -7 14 -4 -4 -10 -44 -14 -89 l-6 -82 -1 77 c-3 107
-8 117 -41 77 l-27 -31 -104 -2 c-58 0 -115 3 -126 7 -18 6 -23 3 -29 -20 -6
-27 -7 -27 -21 -9 -13 19 -14 19 -14 2 0 -78 60 -155 142 -182 l50 -16 -81
-39 c-80 -37 -109 -58 -51 -36 24 9 40 7 92 -11 95 -32 283 -71 405 -83 144
-15 137 -11 113 -58 -23 -46 -52 -66 -77 -53 -39 20 -387 63 -527 65 l-80 2
-29 -43 c-16 -23 -32 -40 -36 -38 -4 3 -4 29 -1 58 8 58 5 78 -5 32 -3 -16
-13 -59 -22 -95 -14 -57 -14 -72 -3 -99 17 -41 110 -116 163 -131 l42 -12 -38
-10 c-21 -5 -36 -14 -34 -21 2 -6 35 -18 73 -27 211 -50 323 -72 449 -90 174
-23 223 -33 355 -69 119 -33 189 -46 520 -96 129 -20 291 -46 360 -59 69 -13
184 -34 255 -45 72 -12 155 -28 185 -36 30 -8 154 -26 275 -40 224 -27 337
-28 450 -5 28 6 73 14 100 17 l50 7 -35 8 c-52 13 -219 37 -360 53 -69 8 -181
22 -249 31 -88 12 -129 14 -145 7 -20 -10 -19 -11 8 -11 16 -1 27 -4 24 -7 -6
-5 -168 17 -446 61 -204 33 -268 66 -307 157 -8 21 -15 50 -15 66 0 66 47 150
100 177 31 16 95 21 86 6 -3 -5 1 -12 10 -15 31 -12 159 -35 284 -51 137 -18
955 -150 1170 -189 74 -14 182 -32 240 -41 58 -8 135 -21 171 -27 98 -16 283
4 416 45 27 8 120 31 208 51 88 21 201 48 251 62 49 13 99 24 110 24 30 0 197
53 343 109 74 28 139 50 144 48 6 -2 -12 -17 -39 -34 -170 -109 -510 -213
-979 -297 -249 -45 -294 -55 -330 -73 -36 -18 -73 -51 -87 -76 -8 -16 -7 -17
10 -8 10 5 25 17 32 26 14 17 69 48 108 59 19 6 22 4 22 -19 0 -20 4 -25 18
-21 9 3 37 10 62 16 25 7 94 28 154 46 61 19 115 33 122 30 13 -5 201 45 432
115 74 22 136 38 139 36 3 -3 -13 -11 -36 -18 -22 -6 -38 -15 -36 -19 5 -7
-23 -33 -54 -50 -12 -6 -21 -7 -21 -2 0 18 -95 0 -245 -45 -82 -25 -154 -52
-159 -60 -6 -11 -18 -13 -45 -9 -22 4 -31 3 -23 -2 11 -7 9 -10 -7 -15 -12 -3
-19 -1 -15 4 3 5 -5 9 -18 9 -19 0 -20 -2 -8 -11 12 -9 11 -10 -7 -6 -13 3
-26 1 -29 -4 -3 -5 -9 -7 -12 -5 -16 9 -138 -27 -160 -47 -17 -16 -25 -18 -31
-9 -5 9 -19 10 -57 2 -27 -5 -74 -15 -104 -21 -65 -13 -83 -24 -23 -14 50 8
63 2 56 -24 -6 -25 -86 -46 -393 -105 -297 -57 -281 -53 -249 -55 82 -3 575
90 889 169 329 83 639 187 1019 345 74 30 155 61 180 69 25 8 63 21 83 30 21
9 50 16 65 16 25 0 23 -4 -27 -35 -30 -18 -75 -48 -100 -64 -44 -31 -44 -31
-13 -25 33 7 53 -5 66 -38 3 -10 13 -18 21 -18 23 0 288 147 339 188 25 20 73
60 107 87 33 28 78 58 98 68 68 32 97 54 97 73 0 10 9 27 20 37 11 10 -5 2
-35 -17 -105 -69 -75 -11 95 184 241 276 352 438 469 681 71 147 85 186 66
174 -8 -5 -10 -2 -7 11 3 11 9 36 13 57 4 26 10 35 17 28 7 -7 6 -20 -3 -41
-7 -17 -10 -33 -7 -36 2 -3 12 16 21 42 18 53 21 77 6 54 -9 -13 -10 -13 -10
0 0 8 5 22 10 30 9 13 10 13 11 0 0 -10 3 -8 9 5 10 24 12 41 4 33 -3 -4 -13
1 -23 11 -9 9 -30 17 -46 16 -17 0 -32 6 -36 14 -3 8 -20 -25 -38 -75z m-3461
-359 c0 -7 -99 -33 -148 -38 -42 -5 -43 -5 -26 14 10 12 25 17 38 13 12 -2 39
-1 61 5 46 10 75 13 75 6z m204 -134 c54 -17 106 -31 116 -31 10 0 20 -6 23
-14 3 -7 20 -16 39 -19 18 -3 110 -22 203 -41 94 -20 185 -36 203 -36 25 0 35
-5 42 -24 8 -22 12 -24 41 -16 18 5 66 12 108 15 l76 6 -89 -37 c-107 -45
-150 -84 -197 -180 -27 -56 -34 -84 -37 -149 -3 -71 -1 -85 22 -128 l26 -47
-28 14 c-15 8 -40 37 -56 65 -15 28 -31 51 -36 51 -14 0 -30 60 -30 111 0 59
-11 62 -78 23 -44 -26 -48 -27 -166 -21 -131 7 -152 9 -162 20 -4 4 -22 7 -40
7 -18 0 -35 4 -38 9 -9 14 -68 22 -81 11 -15 -13 -28 2 -50 53 -22 54 -18 95
16 165 17 35 28 66 26 69 -17 16 -121 -88 -153 -154 -11 -22 -19 -60 -19 -89
l0 -50 -30 17 c-16 9 -55 20 -85 24 -97 12 -204 36 -227 51 -14 9 -23 24 -23
40 0 51 41 162 75 201 100 117 379 155 609 84z m1903 -277 c-63 -34 -261 -104
-397 -140 -124 -32 -157 -37 -230 -34 -171 6 -357 5 -425 -4 -65 -8 -69 -8
-56 8 40 48 60 51 346 52 255 0 276 2 380 26 61 15 160 44 220 66 61 23 128
41 150 41 l40 0 -28 -15z m-4290 -46 c-3 -7 -5 -2 -5 12 0 14 2 19 5 13 2 -7
2 -19 0 -25z m3180 3 c-80 -52 -134 -176 -108 -253 l11 -33 -30 34 c-89 104
-5 279 134 281 l40 0 -47 -29z m486 2 c136 -3 246 -7 244 -9 -13 -13 -176 -27
-392 -33 -222 -7 -268 -11 -318 -28 -32 -11 -60 -16 -63 -12 -3 5 2 9 10 9 8
0 17 8 20 18 4 10 25 28 49 39 49 25 78 26 450 16z m-523 -118 c0 -8 -4 -15
-10 -15 -5 0 -7 7 -4 15 4 8 8 15 10 15 2 0 4 -7 4 -15z m385 -34 c16 -7 9
-11 -33 -20 -29 -6 -74 -11 -100 -11 -60 -1 -193 -24 -222 -40 -12 -6 -24 -9
-27 -7 -6 7 79 57 125 73 40 14 224 18 257 5z m-3579 -122 c-41 -48 -30 -57
16 -14 l41 40 -29 -40 c-19 -27 -22 -35 -8 -22 26 22 41 21 86 -2 34 -17 38
-17 54 -2 11 11 10 6 -4 -16 -34 -48 -26 -48 21 2 24 25 49 45 56 45 7 0 -1
-11 -17 -25 -32 -27 -82 -117 -82 -147 0 -10 -5 -18 -11 -18 -11 0 -9 27 6 65
8 20 8 20 -14 1 -22 -20 -22 -20 -15 0 4 14 4 16 -4 5 -6 -8 -8 -19 -6 -26 3
-6 0 -22 -5 -36 l-10 -24 0 26 c-1 28 -21 39 -69 39 -12 0 -25 7 -29 16 -5 13
-8 13 -15 2 -7 -9 -8 -3 -4 19 4 26 2 31 -10 26 -25 -9 -36 -51 -44 -158 l-7
-100 -1 96 c-3 128 15 184 73 238 53 49 67 53 31 10z m3724 22 c0 -13 -55 -29
-130 -36 -51 -6 -63 -4 -53 5 24 25 183 52 183 31z m-3290 -121 c341 -56 350
-58 360 -97 4 -17 9 -20 20 -13 26 17 28 11 9 -28 -11 -21 -24 -76 -30 -122
-5 -47 -12 -86 -14 -88 -12 -13 -17 63 -7 128 5 41 9 76 7 78 -2 2 -14 -4 -27
-12 -23 -15 -34 -14 -164 15 -205 45 -346 70 -371 66 -20 -4 -23 0 -23 26 0
18 9 41 23 55 19 20 28 23 62 17 22 -4 92 -15 155 -25z m-483 -72 c-3 -8 -6
-5 -6 6 -1 11 2 17 5 13 3 -3 4 -12 1 -19z m4523 -22 c-16 -15 -152 -66 -173
-65 -7 0 15 10 48 23 33 12 74 30 90 39 37 20 54 22 35 3z m39 -40 c12 -14 2
-28 -24 -32 -5 -1 -17 -4 -25 -6 -8 -3 -12 -3 -7 -1 4 3 4 9 1 14 -7 12 14 39
31 39 7 0 18 -6 24 -14z m-434 -36 c-3 -5 -16 -10 -28 -9 -21 0 -21 1 -2 9 28
12 37 12 30 0z m-158 -106 c-3 -3 -12 -4 -19 -1 -8 3 -5 6 6 6 11 1 17 -2 13
-5z m-807 -158 c-12 -12 -25 0 -35 34 l-7 25 26 -24 c18 -17 23 -28 16 -35z
m-1483 -242 c-3 -3 -12 -4 -19 -1 -8 3 -5 6 6 6 11 1 17 -2 13 -5z"/>
<path d="M2345 4671 c-9 -28 2 -59 25 -71 18 -10 18 -8 3 37 -20 59 -20 59
-28 34z"/>
<path d="M13321 4674 c0 -11 3 -14 6 -6 3 7 2 16 -1 19 -3 4 -6 -2 -5 -13z"/>
<path d="M11742 4664 c-12 -8 -26 -13 -31 -10 -13 8 -45 -20 -37 -32 4 -7 20
-12 36 -12 16 0 80 -17 142 -39 111 -38 116 -38 266 -40 139 -1 152 0 152 16
0 27 -12 39 -45 47 -16 4 -50 18 -75 30 -83 43 -162 59 -258 53 -48 -3 -98 -9
-111 -13 -17 -5 -22 -4 -17 4 10 16 5 15 -22 -4z m444 -99 c17 -15 11 -16 -76
-11 -52 3 -111 6 -130 7 l-35 2 40 7 c77 14 180 11 201 -5z"/>
<path d="M13335 4643 c-6 -24 -8 -25 -14 -9 -5 13 -13 -2 -29 -57 -12 -42 -25
-84 -29 -94 -6 -15 -5 -16 9 -5 14 11 16 10 12 -10 -2 -13 4 -5 14 17 20 44
55 175 49 182 -3 2 -8 -9 -12 -24z"/>
<path d="M5135 4613 c-11 -3 -32 -14 -47 -24 -15 -11 -42 -26 -60 -33 -28 -12
-30 -16 -15 -22 13 -4 43 5 89 27 97 47 113 72 33 52z"/>
<path d="M10037 4589 c7 -7 15 -10 18 -7 3 3 -2 9 -12 12 -14 6 -15 5 -6 -5z"/>
<path d="M11558 4566 c-47 -17 -92 -36 -100 -42 -65 -55 -191 -75 -468 -76
-135 0 -200 -3 -175 -8 131 -26 225 -32 421 -28 133 3 196 1 174 -5 -61 -15
-469 -20 -597 -7 -229 23 -530 90 -667 149 -27 12 -51 20 -53 17 -7 -7 149
-64 263 -95 147 -40 268 -64 524 -102 200 -29 228 -31 390 -25 96 3 200 11
230 16 73 14 214 14 268 2 24 -6 58 -9 75 -6 32 3 67 35 67 59 0 17 -157 157
-192 173 -28 11 -28 11 -28 -27 0 -22 -3 -47 -6 -56 -8 -19 -66 -50 -114 -60
l-35 -6 43 21 c23 13 46 30 51 39 9 16 25 102 19 100 -1 -1 -42 -16 -90 -33z
m-71 -142 c-3 -3 -12 -4 -19 -1 -8 3 -5 6 6 6 11 1 17 -2 13 -5z"/>
<path d="M3022 4550 c0 -14 2 -19 5 -12 2 6 2 18 0 25 -3 6 -5 1 -5 -13z"/>
<path d="M4020 4555 c0 -5 5 -17 10 -25 5 -8 10 -10 10 -5 0 6 -5 17 -10 25
-5 8 -10 11 -10 5z"/>
<path d="M3032 4490 c0 -19 2 -27 5 -17 2 9 2 25 0 35 -3 9 -5 1 -5 -18z"/>
<path d="M4040 4505 c0 -5 5 -17 10 -25 5 -8 10 -10 10 -5 0 6 -5 17 -10 25
-5 8 -10 11 -10 5z"/>
<path d="M12444 4468 l-19 -23 23 19 c21 18 27 26 19 26 -2 0 -12 -10 -23 -22z"/>
<path d="M2242 4456 c-14 -32 -13 -39 7 -27 7 5 11 19 9 32 -3 23 -3 23 -16
-5z"/>
<path d="M3291 4462 c-18 -34 -40 -138 -46 -222 -3 -47 -8 -99 -11 -116 -4
-30 6 -42 165 -199 125 -124 170 -175 173 -196 3 -16 2 -29 -1 -29 -11 0 -142
109 -241 200 l-100 92 0 -63 c0 -35 -3 -74 -6 -86 -5 -19 -1 -23 29 -28 35 -7
106 -65 127 -104 13 -26 13 -94 -1 -125 -9 -20 -9 -29 1 -41 7 -9 9 -15 4 -14
-5 1 -12 0 -16 -1 -5 -1 -11 -3 -15 -4 -5 -1 -19 -9 -32 -18 l-23 -17 18 -34
c11 -19 33 -54 49 -78 26 -37 30 -52 31 -113 l1 -71 94 -84 c193 -172 488
-389 511 -375 7 5 8 2 3 -6 -6 -10 -4 -12 9 -7 9 4 15 3 12 -2 -8 -12 113 -83
126 -75 7 5 8 2 3 -6 -6 -10 -4 -12 9 -7 10 4 15 3 11 -3 -7 -11 85 -60 106
-56 8 1 25 8 37 15 48 26 89 23 157 -12 l65 -32 -24 -34 c-14 -19 -23 -38 -20
-42 3 -5 -2 -6 -10 -3 -9 3 -13 10 -10 15 3 5 -3 6 -12 2 -13 -5 0 -15 47 -39
35 -18 67 -33 71 -34 4 0 3 13 -2 29 -10 35 -5 41 28 41 22 0 23 2 11 17 -8 9
-9 14 -4 12 44 -23 157 -70 161 -66 2 1 -45 24 -104 51 -134 62 -312 154 -419
218 -46 27 -88 46 -94 42 -7 -4 -9 -3 -6 3 4 6 -34 37 -86 71 -139 91 -239
163 -234 168 3 3 69 -38 148 -89 152 -100 423 -245 649 -347 204 -93 343 -147
270 -105 -14 8 -19 14 -12 15 7 0 10 4 7 10 -3 5 11 26 32 45 24 22 40 30 44
23 4 -7 9 -4 12 8 3 12 5 8 6 -12 0 -16 -5 -36 -11 -43 -7 -6 -13 -17 -13 -24
0 -7 -11 -11 -25 -10 -23 3 -24 2 -7 -11 13 -10 14 -15 6 -18 -7 -2 28 -21 79
-41 96 -39 124 -46 82 -22 -14 8 -20 14 -15 15 12 0 12 101 1 141 -7 24 -4 28
25 38 17 6 33 11 34 11 1 0 5 -21 8 -46 13 -117 160 -195 264 -141 49 26 65
58 69 135 2 59 2 61 -4 16 -13 -93 -69 -144 -158 -144 -93 0 -170 76 -160 160
8 78 12 95 22 95 5 1 25 11 44 23 49 31 120 30 179 -4 25 -14 37 -18 27 -10
-10 8 -20 28 -21 44 -2 25 3 31 31 41 19 7 39 9 45 5 8 -4 9 -3 5 4 -4 7 -5
12 -1 12 3 0 96 -22 208 -49 255 -63 611 -133 837 -165 205 -30 572 -69 603
-64 12 2 -48 12 -133 22 -278 32 -494 71 -485 85 2 5 -4 17 -15 29 -18 19 -18
21 -2 24 9 3 -8 8 -38 12 -146 21 -604 121 -783 172 -141 39 -426 135 -432
144 -3 5 11 12 32 15 66 11 103 26 103 41 0 10 13 14 50 14 48 0 130 25 130
40 0 11 -35 40 -49 40 -7 0 -10 4 -7 9 3 5 -25 2 -62 -6 -424 -89 -986 -95
-1329 -13 -275 65 -417 184 -486 407 -27 86 -43 155 -83 343 -32 152 -65 259
-112 365 -35 78 -129 245 -137 245 -2 0 -9 -8 -14 -18z m1390 -1613 c28 -15
42 -55 28 -82 -16 -30 -28 -37 -67 -37 -28 0 -35 5 -46 32 -17 39 -8 68 25 85
30 16 35 16 60 2z m447 -94 c30 -36 29 -85 -4 -124 -14 -17 -35 -31 -46 -31
-16 0 -19 -5 -14 -30 3 -16 9 -43 12 -60 7 -35 7 -35 -40 -15 -34 14 -36 18
-36 60 0 36 -5 48 -25 61 -29 19 -41 13 -50 -26 -8 -36 -13 -40 -47 -33 -25 5
-27 9 -25 43 1 21 5 36 8 34 5 -3 35 65 80 183 l8 21 78 -29 c45 -16 88 -40
101 -54z m277 -63 c-3 -3 -11 0 -18 7 -9 10 -8 11 6 5 10 -3 15 -9 12 -12z
m-825 -168 c17 -10 18 -13 5 -8 -11 3 -26 7 -32 7 -7 0 -13 4 -13 9 0 12 11 9
40 -8z"/>
<path d="M4980 2734 c-13 -33 -13 -54 0 -54 6 0 10 4 10 9 0 16 61 19 77 3 13
-14 14 -13 11 9 -2 16 -15 30 -38 41 -46 23 -49 22 -60 -8z"/>
<path d="M5242 4468 c3 -7 14 -13 26 -12 12 0 54 1 94 2 39 1 69 4 67 6 -2 2
-46 7 -98 11 -76 5 -92 4 -89 -7z"/>
<path d="M7844 4448 c26 -3 57 -13 69 -21 30 -19 129 -47 164 -46 l28 1 -30 7
c-31 8 -75 29 -75 36 0 2 21 10 46 18 44 13 39 13 -101 13 -94 -1 -131 -3
-101 -8z"/>
<path d="M7716 4432 c-4 -7 -20 -18 -34 -25 -26 -11 -26 -11 18 -17 42 -7 43
-7 10 -9 -39 -1 -68 -16 -57 -27 4 -5 60 -11 125 -15 64 -3 130 -10 145 -15
26 -9 21 -12 -60 -33 -48 -12 -91 -27 -94 -33 -3 -5 -35 -20 -70 -33 -35 -13
-60 -24 -56 -24 14 -1 184 48 241 70 66 24 191 59 208 58 18 -1 -37 -25 -100
-45 -30 -9 -51 -18 -49 -21 9 -9 207 61 207 73 0 15 -53 34 -94 34 -37 0 -122
22 -156 40 -37 20 -141 29 -147 13 -7 -19 -21 -16 -25 5 -3 13 -5 14 -12 4z
m79 -22 c3 -5 12 -10 18 -10 7 0 6 4 -3 10 -12 7 -8 10 14 10 24 0 27 -2 16
-15 -18 -22 -80 -17 -80 6 0 12 27 11 35 -1z"/>
<path d="M8630 4430 c-14 -8 -212 -42 -329 -56 -36 -4 -49 -9 -40 -15 19 -12
76 -11 84 1 9 15 41 12 55 -5 7 -8 20 -15 29 -15 12 0 13 2 3 9 -19 11 5 21
39 14 13 -2 51 3 84 11 46 11 53 15 30 16 -22 1 -14 5 30 15 33 8 67 14 75 15
13 0 13 1 0 10 -18 12 -40 12 -60 0z"/>
<path d="M4070 4430 c0 -3 20 -64 44 -135 42 -127 74 -200 115 -259 11 -17 18
-33 16 -36 -2 -4 17 -33 43 -66 l48 -59 -19 -62 c-11 -39 -25 -63 -35 -66 -9
-3 39 -5 108 -6 247 -2 569 79 578 146 3 18 -9 28 -70 59 -166 83 -295 185
-412 324 l-38 45 33 -48 c72 -104 204 -219 355 -307 38 -22 65 -40 60 -40 -13
0 -122 57 -182 95 l-53 34 16 -34 c16 -33 16 -35 -8 -55 -65 -57 -181 -83
-264 -60 -49 14 -76 40 -163 160 -58 80 -68 100 -119 245 -32 91 -52 139 -53
125z"/>
<path d="M4390 4400 c6 -11 13 -20 16 -20 2 0 0 9 -6 20 -6 11 -13 20 -16 20
-2 0 0 -9 6 -20z"/>
<path d="M8910 4402 c0 -5 7 -17 15 -28 14 -19 14 -19 15 2 0 12 -7 24 -15 28
-8 3 -15 2 -15 -2z"/>
<path d="M13226 4395 c-9 -26 -7 -32 5 -12 6 10 9 21 6 23 -2 3 -7 -2 -11 -11z"/>
<path d="M8960 4389 c0 -9 73 -49 90 -49 7 0 8 6 1 19 -11 19 -91 46 -91 30z"/>
<path d="M12777 4372 c-19 -20 -22 -32 -9 -32 5 0 14 11 20 25 14 30 11 31
-11 7z"/>
<path d="M2415 4360 c-33 -11 -68 -20 -77 -20 -22 0 -22 -1 -1 -96 16 -73 17
-75 30 -50 8 14 17 26 22 26 4 0 13 12 20 27 l13 27 17 -23 18 -23 20 25 c16
20 23 23 32 14 9 -8 8 -1 -2 23 -9 24 -19 34 -31 32 -19 -4 -16 8 12 41 20 23
6 22 -73 -3z"/>
<path d="M13246 4365 c-9 -26 -7 -32 5 -12 6 10 9 21 6 23 -2 3 -7 -2 -11 -11z"/>
<path d="M8472 4339 c18 -7 33 -7 45 0 14 8 9 10 -27 10 -42 -1 -43 -1 -18
-10z"/>
<path d="M8402 4325 c9 -10 21 -16 28 -13 7 2 -1 10 -16 17 -27 12 -28 11 -12
-4z"/>
<path d="M2130 4310 c14 -4 32 -8 40 -9 13 -1 13 0 0 9 -8 5 -26 9 -40 9 l-25
-1 25 -8z"/>
<path d="M13175 4279 c-4 -6 -5 -12 -2 -15 2 -3 7 2 10 11 7 17 1 20 -8 4z"/>
<path d="M9145 4270 c-13 -6 -15 -9 -5 -9 8 0 22 4 30 9 18 12 2 12 -25 0z"/>
<path d="M7321 4234 c0 -11 3 -14 6 -6 3 7 2 16 -1 19 -3 4 -6 -2 -5 -13z"/>
<path d="M7844 4234 c-18 -14 -18 -15 6 -8 14 3 32 10 40 15 12 7 11 8 -6 9
-11 0 -29 -7 -40 -16z"/>
<path d="M8942 4238 c-14 -14 -16 -42 -3 -34 7 5 23 46 17 46 -1 0 -7 -5 -14
-12z"/>
<path d="M13137 4201 c-24 -43 -25 -49 -10 -47 13 1 17 -5 15 -19 -1 -11 11 5
27 35 28 52 39 81 24 67 -3 -4 -11 -2 -18 3 -9 7 -19 -4 -38 -39z"/>
<path d="M6821 4226 c2 -2 49 -9 104 -15 54 -6 112 -18 127 -26 15 -7 42 -16
60 -19 23 -5 16 1 -25 19 -35 15 -93 30 -140 35 -87 10 -133 12 -126 6z"/>
<path d="M7780 4210 c-18 -12 -2 -12 25 0 13 6 15 9 5 9 -8 0 -22 -4 -30 -9z"/>
<path d="M7120 4190 c8 -5 22 -9 30 -9 10 0 8 3 -5 9 -27 12 -43 12 -25 0z"/>
<path d="M7685 4180 c-3 -5 1 -10 10 -10 9 0 13 5 10 10 -3 6 -8 10 -10 10 -2
0 -7 -4 -10 -10z"/>
<path d="M7230 4170 c-8 -5 -10 -10 -5 -10 6 0 17 5 25 10 8 5 11 10 5 10 -5
0 -17 -5 -25 -10z"/>
<path d="M3770 4165 c0 -5 5 -17 10 -25 5 -8 10 -10 10 -5 0 6 -5 17 -10 25
-5 8 -10 11 -10 5z"/>
<path d="M8167 4142 c-10 -10 -17 -24 -17 -30 0 -23 -46 -34 -164 -39 -191 -7
-194 -15 -16 -38 69 -8 137 -18 152 -21 24 -5 27 -2 33 38 4 24 13 58 21 76
15 37 14 39 -9 14z"/>
<path d="M3808 4085 c11 -22 28 -49 37 -60 9 -11 4 3 -11 30 -34 62 -54 85
-26 30z"/>
<path d="M7009 4073 c-13 -16 -12 -17 4 -4 16 13 21 21 13 21 -2 0 -10 -8 -17
-17z"/>
<path d="M7381 4019 c-7 -12 -10 -23 -8 -26 3 -3 11 5 17 17 15 28 8 35 -9 9z"/>
<path d="M2376 3939 c-4 -20 -6 -49 -4 -65 3 -29 4 -29 63 -28 34 0 68 5 78
10 12 7 7 9 -23 9 -52 0 -93 31 -101 76 l-5 34 -8 -36z"/>
<path d="M3571 3904 c0 -11 3 -14 6 -6 3 7 2 16 -1 19 -3 4 -6 -2 -5 -13z"/>
<path d="M2660 3639 c0 -8 21 -30 47 -49 47 -36 86 -61 68 -43 -66 64 -115
103 -115 92z"/>
<path d="M11695 3630 c-29 -18 -160 -67 -331 -124 -45 -15 -106 -30 -137 -33
l-55 -6 28 -24 29 -24 240 81 c131 44 247 80 256 80 14 0 15 3 5 15 -10 13
-10 19 5 35 23 26 2 26 -40 0z"/>
<path d="M2917 3607 c-4 -10 -7 -26 -7 -35 1 -15 2 -15 11 1 6 10 9 25 7 35
-3 16 -4 15 -11 -1z"/>
<path d="M2877 3595 c-4 -8 -2 -17 3 -20 6 -4 10 3 10 14 0 25 -6 27 -13 6z"/>
<path d="M11969 3583 c-13 -15 -12 -15 9 -4 23 12 28 21 13 21 -5 0 -15 -7
-22 -17z"/>
<path d="M12135 3591 c-6 -11 1 -16 40 -25 33 -8 33 -8 -7 17 -15 9 -30 13
-33 8z"/>
<path d="M2841 3574 c0 -11 3 -14 6 -6 3 7 2 16 -1 19 -3 4 -6 -2 -5 -13z"/>
<path d="M12969 3573 c-13 -16 -12 -17 4 -4 16 13 21 21 13 21 -2 0 -10 -8
-17 -17z"/>
<path d="M2800 3570 c0 -5 5 -10 11 -10 5 0 7 5 4 10 -3 6 -8 10 -11 10 -2 0
-4 -4 -4 -10z"/>
<path d="M12753 3438 c-67 -73 -152 -162 -189 -198 -38 -36 -67 -69 -65 -75 1
-5 -1 -7 -5 -3 -6 7 -46 -24 -137 -105 -18 -16 -25 -25 -17 -21 13 7 13 6 1
-10 -8 -9 -20 -15 -27 -12 -7 3 -18 -3 -26 -12 -12 -16 -11 -16 7 -2 19 14 19
14 6 -2 -7 -10 -16 -16 -20 -14 -10 7 -36 -12 -36 -25 0 -7 -7 -13 -17 -15
-16 -2 -128 -82 -128 -91 0 -2 4 -2 9 1 5 4 7 -3 4 -14 -3 -11 -9 -17 -14 -14
-5 3 -9 1 -9 -4 0 -5 -12 -9 -27 -8 -16 1 -27 -4 -26 -11 1 -6 -4 -17 -12 -23
-8 -7 -15 -24 -15 -39 0 -20 -2 -23 -10 -11 -8 12 -11 13 -22 2 -11 -11 -10
-13 2 -10 8 2 14 -3 12 -10 -2 -10 2 -10 18 -2 11 6 17 16 14 22 -4 7 -3 8 4
4 39 -24 608 437 777 630 95 108 113 131 94 116 -13 -10 -19 -9 -29 3 -7 8
-19 15 -27 15 -8 0 -13 6 -10 13 2 6 10 12 18 12 8 0 14 5 14 10 0 6 4 16 8
23 20 31 -9 2 -120 -120z"/>
<path d="M2996 3541 c-29 -32 -13 -41 17 -10 18 18 23 29 14 29 -8 0 -22 -9
-31 -19z"/>
<path d="M12924 3518 l-19 -23 23 19 c21 18 27 26 19 26 -2 0 -12 -10 -23 -22z"/>
<path d="M2756 3515 c4 -8 10 -12 15 -9 11 6 2 24 -11 24 -5 0 -7 -7 -4 -15z"/>
<path d="M3023 3523 c-7 -2 -13 -11 -13 -19 0 -8 -5 -14 -12 -14 -8 0 -9 -3
-2 -10 11 -11 54 -2 54 11 0 5 -5 9 -11 9 -8 0 -8 5 1 15 12 15 6 18 -17 8z"/>
<path d="M2713 3499 c2 -11 10 -25 18 -30 11 -7 11 -9 -3 -9 -20 0 -25 -20 -5
-20 9 0 8 -3 -2 -9 -19 -12 -5 -31 24 -31 22 0 24 4 22 42 -2 44 -22 78 -44
78 -7 0 -12 -9 -10 -21z"/>
<path d="M3030 3461 c-30 -4 -41 -9 -32 -15 11 -6 167 6 232 19 29 5 -155 2
-200 -4z"/>
<path d="M2960 3405 c-7 -13 -17 -22 -22 -19 -18 11 -6 -23 23 -66 l31 -45 -6
33 -6 32 30 -15 c29 -15 30 -15 27 7 -1 13 -17 33 -35 46 -19 13 -31 26 -28
29 2 3 15 -2 28 -11 25 -18 63 -22 53 -6 -3 6 1 13 10 16 26 10 -3 24 -51 24
-33 0 -43 -5 -54 -25z"/>
<path d="M2746 3369 c-14 -11 -56 -36 -92 -55 -36 -19 -62 -34 -57 -35 9 -1
34 -6 48 -10 6 -1 32 19 59 44 27 26 54 47 60 46 23 -3 34 2 40 16 8 22 -26
19 -58 -6z"/>
<path d="M12495 3354 l-40 -36 43 32 c36 27 49 40 40 40 -2 0 -21 -16 -43 -36z"/>
<path d="M2802 3347 c-12 -13 -22 -29 -22 -35 0 -16 33 -15 48 0 9 9 12 7 12
-10 0 -29 16 -28 24 1 l6 22 20 -25 c18 -23 20 -23 20 -5 1 20 1 20 15 1 19
-25 19 -5 1 39 -17 40 -22 42 -48 19 -16 -16 -18 -16 -24 0 -9 22 -27 20 -52
-7z"/>
<path d="M11065 3280 c-16 -7 -12 -9 18 -9 23 -1 36 3 32 9 -7 12 -23 12 -50
0z"/>
<path d="M2995 3255 c24 -58 38 -133 31 -168 -8 -41 -55 -102 -87 -112 -11 -4
-18 -9 -16 -11 3 -3 25 5 51 16 37 18 50 32 72 76 14 30 31 55 38 55 6 1 18 3
26 4 8 1 21 3 29 4 7 0 -8 16 -35 34 -27 17 -64 52 -83 77 -19 25 -31 36 -26
25z"/>
<path d="M12482 3218 c-6 -7 -47 -40 -91 -73 -46 -34 -79 -65 -76 -72 2 -8 -4
-13 -17 -13 -11 0 -27 -8 -35 -17 -8 -10 -11 -12 -8 -5 4 8 -10 3 -31 -11
-145 -91 -168 -107 -158 -107 7 0 15 -8 19 -17 4 -13 -4 -28 -32 -52 -48 -42
-32 -32 82 54 127 97 383 325 364 325 -4 0 -11 -6 -17 -12z m-122 -111 c0 -2
-10 -12 -22 -23 l-23 -19 19 23 c18 21 26 27 26 19z m-200 -142 c-6 -8 -8 -20
-4 -27 5 -9 2 -8 -10 1 -17 14 -17 15 0 28 23 17 29 16 14 -2z"/>
<path d="M3266 3123 l-29 -5 44 -44 c24 -24 47 -44 53 -44 5 0 7 3 3 6 -3 3
-1 17 4 31 7 20 6 30 -7 44 -10 11 -22 18 -28 18 -6 -1 -24 -4 -40 -6z"/>
<path d="M10390 2835 c-7 -9 -11 -18 -8 -20 3 -3 11 1 18 10 7 9 11 18 8 20
-3 3 -11 -1 -18 -10z"/>
<path d="M11984 2804 c-18 -14 -18 -15 4 -4 12 6 22 13 22 15 0 8 -5 6 -26
-11z"/>
<path d="M12004 2784 c-18 -14 -18 -15 4 -4 12 6 22 13 22 15 0 8 -5 6 -26
-11z"/>
<path d="M11118 2764 c-5 -4 -8 -16 -8 -26 0 -15 -8 -18 -44 -18 -57 0 -76 -8
-76 -31 0 -23 15 -25 24 -4 4 11 20 15 56 15 35 0 52 5 56 14 8 20 1 60 -8 50z"/>
<path d="M11864 2734 c-18 -14 -18 -15 4 -4 12 6 22 13 22 15 0 8 -5 6 -26
-11z"/>
<path d="M11924 2734 c-18 -14 -18 -15 4 -4 12 6 22 13 22 15 0 8 -5 6 -26
-11z"/>
<path d="M11960 2691 c-8 -6 -17 -8 -21 -5 -4 2 -10 -3 -13 -11 -4 -11 -13
-14 -30 -9 -13 3 -27 1 -30 -4 -4 -6 3 -8 16 -5 23 5 23 4 -2 -17 l-25 -22 29
17 c16 10 44 26 63 37 18 11 33 22 33 24 0 6 -3 5 -20 -5z"/>
<path d="M3302 2660 c0 -19 2 -27 5 -17 2 9 2 25 0 35 -3 9 -5 1 -5 -18z"/>
<path d="M10800 2640 c-44 -14 -54 -22 -52 -36 5 -25 12 -32 12 -12 0 11 20
22 60 34 33 10 60 21 60 26 0 11 -16 9 -80 -12z"/>
<path d="M3183 2635 c1 -10 14 -26 28 -34 22 -12 31 -13 58 -1 17 7 30 15 27
17 -2 3 -14 -1 -26 -7 -29 -16 -69 -4 -80 23 -9 19 -10 19 -7 2z"/>
<path d="M6548 2643 c7 -3 16 -2 19 1 4 3 -2 6 -13 5 -11 0 -14 -3 -6 -6z"/>
<path d="M5266 2619 c-39 -34 -45 -88 -15 -120 13 -14 18 -18 12 -9 -18 24
-16 64 5 90 25 31 99 31 124 -1 10 -11 18 -16 18 -11 0 24 -47 63 -81 68 -28
5 -41 1 -63 -17z"/>
<path d="M5461 2623 c7 -12 15 -20 18 -17 3 2 -3 12 -13 22 -17 16 -18 16 -5
-5z"/>
<path d="M10948 2609 c19 -20 35 -25 97 -29 48 -3 74 -1 72 5 -2 6 -37 12 -79
15 -43 3 -83 11 -94 19 -12 10 -11 6 4 -10z"/>
<path d="M11175 2546 c-29 -45 -79 -67 -143 -64 -44 3 -50 1 -35 -9 44 -33
166 6 191 60 19 40 10 50 -13 13z"/>
<path d="M4280 2563 c0 -2 35 -21 78 -42 55 -28 79 -35 79 -26 0 8 -4 12 -8
10 -12 -8 -39 7 -32 18 3 5 1 7 -5 3 -12 -7 -83 24 -77 34 2 3 -5 6 -16 6 -10
0 -19 -2 -19 -3z"/>
<path d="M11678 2529 c-32 -16 -58 -32 -58 -34 0 -3 27 8 60 25 33 17 60 32
60 35 0 7 2 8 -62 -26z"/>
<path d="M5609 2522 c-5 -15 -11 -32 -14 -39 -2 -6 3 -14 11 -17 9 -3 14 1 14
13 0 10 7 25 16 32 14 11 21 11 45 -3 16 -10 29 -13 29 -9 0 14 -26 31 -59 41
-29 8 -33 6 -42 -18z"/>
<path d="M10631 2540 c0 -8 4 -24 9 -35 5 -13 9 -14 9 -5 0 8 -4 24 -9 35 -5
13 -9 14 -9 5z"/>
<path d="M10842 2535 c-69 -21 -72 -23 -65 -40 4 -12 8 -13 13 -5 4 6 31 17
59 23 29 7 52 16 52 22 1 15 -12 15 -59 0z"/>
<path d="M5780 2486 c0 -23 -9 -45 -27 -66 -26 -31 -29 -32 -82 -27 -31 3 -65
9 -77 12 -19 6 -22 1 -28 -35 l-7 -42 -37 6 c-34 6 -36 5 -18 -9 11 -8 30 -15
42 -15 17 0 23 8 29 36 l6 36 70 -7 69 -7 35 35 c29 29 35 42 35 76 0 23 -2
41 -5 41 -3 0 -5 -15 -5 -34z"/>
<path d="M5980 2496 c0 -9 39 -233 46 -265 5 -22 3 -23 -25 -18 -17 4 -31 4
-31 2 0 -11 54 -25 61 -18 9 9 -34 289 -45 300 -3 4 -6 3 -6 -1z"/>
<path d="M7238 2483 c7 -3 16 -2 19 1 4 3 -2 6 -13 5 -11 0 -14 -3 -6 -6z"/>
<path d="M10440 2472 c0 -12 14 -27 27 -29 6 -1 41 -25 78 -53 50 -38 75 -50
101 -50 18 0 34 5 34 10 0 7 -13 9 -32 5 -29 -5 -44 2 -120 60 -49 35 -88 61
-88 57z"/>
<path d="M10651 2464 c0 -11 3 -14 6 -6 3 7 2 16 -1 19 -3 4 -6 -2 -5 -13z"/>
<path d="M10126 2449 c-20 -16 -26 -28 -24 -57 1 -37 1 -37 5 -5 7 57 71 89
126 62 21 -10 21 -10 3 5 -28 22 -78 20 -110 -5z"/>
<path d="M10850 2415 c-57 -18 -106 -38 -108 -45 -3 -9 1 -11 14 -6 46 18 168
56 180 56 13 0 29 18 23 25 -2 1 -51 -12 -109 -30z"/>
<path d="M5892 2410 c-24 -31 -28 -50 -12 -50 6 0 10 6 10 14 0 21 21 31 31
15 6 -10 9 -4 9 19 0 40 -10 41 -38 2z"/>
<path d="M10661 2424 c0 -11 3 -14 6 -6 3 7 2 16 -1 19 -3 4 -6 -2 -5 -13z"/>
<path d="M9961 2414 c0 -11 3 -14 6 -6 3 7 2 16 -1 19 -3 4 -6 -2 -5 -13z"/>
<path d="M4840 2410 c8 -5 20 -10 25 -10 6 0 3 5 -5 10 -8 5 -19 10 -25 10 -5
0 -3 -5 5 -10z"/>
<path d="M4620 2395 c14 -8 30 -14 35 -14 6 0 -1 6 -15 14 -14 8 -29 14 -35
14 -5 0 1 -6 15 -14z"/>
<path d="M4890 2390 c8 -5 20 -10 25 -10 6 0 3 5 -5 10 -8 5 -19 10 -25 10 -5
0 -3 -5 5 -10z"/>
<path d="M11390 2385 c-14 -8 -20 -14 -15 -14 6 0 21 6 35 14 14 8 21 14 15
14 -5 0 -21 -6 -35 -14z"/>
<path d="M9820 2379 c0 -5 5 -7 10 -4 6 3 10 8 10 11 0 2 -4 4 -10 4 -5 0 -10
-5 -10 -11z"/>
<path d="M9692 2364 c-12 -8 -22 -20 -22 -25 0 -5 13 0 29 12 24 17 38 21 72
16 28 -4 38 -2 28 4 -22 14 -82 11 -107 -7z"/>
<path d="M4970 2360 c8 -5 20 -10 25 -10 6 0 3 5 -5 10 -8 5 -19 10 -25 10 -5
0 -3 -5 5 -10z"/>
<path d="M10341 2357 c-3 -56 -60 -105 -139 -122 -18 -4 -31 -9 -29 -12 9 -8
91 19 120 39 32 23 60 72 54 96 -4 15 -5 15 -6 -1z"/>
<path d="M5020 2340 c8 -5 20 -10 25 -10 6 0 3 5 -5 10 -8 5 -19 10 -25 10 -5
0 -3 -5 5 -10z"/>
<path d="M6525 2340 c-30 -11 -44 -32 -50 -71 l-5 -34 15 32 c26 55 79 78 126
53 10 -6 19 -7 19 -2 0 11 -46 32 -68 31 -9 0 -26 -4 -37 -9z"/>
<path d="M5070 2320 c8 -5 20 -10 25 -10 6 0 3 5 -5 10 -8 5 -19 10 -25 10 -5
0 -3 -5 5 -10z"/>
<path d="M6664 2315 c-10 -8 -14 -15 -8 -15 5 0 19 7 30 15 10 8 14 15 8 15
-5 0 -19 -7 -30 -15z"/>
<path d="M5805 2288 c-20 -24 -28 -27 -44 -18 -30 15 -49 12 -27 -5 28 -21 56
-19 82 6 20 19 28 20 78 12 75 -13 71 0 -4 19 l-61 15 -24 -29z"/>
<path d="M11053 2293 c-62 -26 -62 -26 -41 -45 26 -23 22 -23 99 8 65 26 93
42 51 29 -12 -3 -22 -3 -21 2 7 40 -5 41 -88 6z"/>
<path d="M4840 2302 c8 -5 26 -13 40 -16 17 -5 20 -4 10 2 -8 5 -26 13 -40 16
-17 5 -20 4 -10 -2z"/>
<path d="M5135 2295 c17 -8 37 -14 45 -14 8 0 -1 7 -20 14 -46 18 -64 17 -25
0z"/>
<path d="M6261 2303 c0 -7 -12 -20 -26 -29 -21 -14 -31 -15 -53 -5 -25 11 -26
10 -8 -4 38 -30 103 -8 93 31 -2 10 -5 13 -6 7z"/>
<path d="M9319 2293 c-13 -16 -12 -17 4 -4 16 13 21 21 13 21 -2 0 -10 -8 -17
-17z"/>
<path d="M10457 2303 c-9 -2 -15 -8 -12 -13 6 -10 45 -1 45 11 0 9 -4 10 -33
2z"/>
<path d="M7133 2260 c0 -25 2 -35 4 -22 2 12 2 32 0 45 -2 12 -4 2 -4 -23z"/>
<path d="M5210 2272 c8 -5 26 -13 40 -16 17 -5 20 -4 10 2 -8 5 -26 13 -40 16
-17 5 -20 4 -10 -2z"/>
<path d="M6832 2239 c-13 -22 -22 -43 -19 -45 6 -7 49 66 45 77 -2 5 -13 -10
-26 -32z"/>
<path d="M7383 2243 c9 -2 25 -2 35 0 9 3 1 5 -18 5 -19 0 -27 -2 -17 -5z"/>
<path d="M5020 2232 c8 -5 26 -13 40 -16 17 -5 20 -4 10 2 -8 5 -26 13 -40 16
-17 5 -20 4 -10 -2z"/>
<path d="M10937 2203 c-37 -14 -66 -28 -63 -30 4 -4 136 44 145 52 9 10 -15 3
-82 -22z"/>
<path d="M7696 2195 c-9 -26 -7 -32 5 -12 6 10 9 21 6 23 -2 3 -7 -2 -11 -11z"/>
<path d="M7122 2180 c0 -14 2 -19 5 -12 2 6 2 18 0 25 -3 6 -5 1 -5 -13z"/>
<path d="M9844 2178 l-19 -23 23 19 c21 18 27 26 19 26 -2 0 -12 -10 -23 -22z"/>
<path d="M9975 2190 c-16 -7 -17 -9 -3 -9 9 -1 20 4 23 9 7 11 7 11 -20 0z"/>
<path d="M5178 2173 c7 -3 16 -2 19 1 4 3 -2 6 -13 5 -11 0 -14 -3 -6 -6z"/>
<path d="M5238 2153 c7 -3 16 -2 19 1 4 3 -2 6 -13 5 -11 0 -14 -3 -6 -6z"/>
<path d="M10655 2144 c-9 -9 -14 -23 -11 -30 3 -8 0 -14 -6 -14 -6 0 -9 -2 -6
-5 2 -3 35 6 73 18 l69 24 -46 11 c-58 15 -53 15 -73 -4z"/>
<path d="M6468 2130 c48 -40 136 -50 182 -20 23 14 6 22 -24 10 -42 -16 -98
-12 -141 10 -40 19 -40 19 -17 0z"/>
<path d="M7400 2115 c-19 -19 -30 -35 -24 -35 5 0 22 16 37 35 36 45 30 45
-13 0z"/>
<path d="M9698 2143 c7 -3 16 -2 19 1 4 3 -2 6 -13 5 -11 0 -14 -3 -6 -6z"/>
<path d="M6756 2113 c-12 -25 -20 -30 -43 -26 l-28 3 25 -10 c22 -10 28 -8 47
17 21 27 25 29 83 23 33 -3 60 -2 60 2 0 4 -8 8 -19 8 -10 0 -39 3 -64 6 -43
6 -46 5 -61 -23z"/>
<path d="M6938 2053 c7 -3 16 -2 19 1 4 3 -2 6 -13 5 -11 0 -14 -3 -6 -6z"/>
<path d="M9108 2053 c6 -2 18 -2 25 0 6 3 1 5 -13 5 -14 0 -19 -2 -12 -5z"/>
<path d="M7098 2033 c18 -2 45 -2 60 0 15 2 0 4 -33 4 -33 0 -45 -2 -27 -4z"/>
<path d="M7203 2023 c9 -2 25 -2 35 0 9 3 1 5 -18 5 -19 0 -27 -2 -17 -5z"/>
<path d="M7363 2013 c20 -2 54 -2 75 0 20 2 3 4 -38 4 -41 0 -58 -2 -37 -4z"/>
</g>
</svg>
